<svg xmlns="http://www.w3.org/2000/svg" xmlns:xlink="http://www.w3.org/1999/xlink" width="239" zoomAndPan="magnify" viewBox="0 0 179.25 66" height="88" preserveAspectRatio="xMidYMid meet" version="1.0"><defs><clipPath id="a88832a948"><path d="M 0 0.136719 L 6 0.136719 L 6 17 L 0 17 Z M 0 0.136719 " clip-rule="nonzero"/></clipPath><clipPath id="40adde71e8"><path d="M 87 0.136719 L 92.746094 0.136719 L 92.746094 17 L 87 17 Z M 87 0.136719 " clip-rule="nonzero"/></clipPath><clipPath id="7c111ad4a9"><path d="M 4 11 L 77 11 L 77 65.863281 L 4 65.863281 Z M 4 11 " clip-rule="nonzero"/></clipPath><clipPath id="20550515f7"><path d="M 3 11 L 77 11 L 77 65.863281 L 3 65.863281 Z M 3 11 " clip-rule="nonzero"/></clipPath><clipPath id="742e8b7e8f"><path d="M 172 0.136719 L 178.210938 0.136719 L 178.210938 17 L 172 17 Z M 172 0.136719 " clip-rule="nonzero"/></clipPath><clipPath id="41aef97945"><path d="M 85.5625 0.136719 L 91 0.136719 L 91 17 L 85.5625 17 Z M 85.5625 0.136719 " clip-rule="nonzero"/></clipPath><clipPath id="13faf61ca2"><path d="M 85.5625 0.136719 L 92 0.136719 L 92 17 L 85.5625 17 Z M 85.5625 0.136719 " clip-rule="nonzero"/></clipPath><clipPath id="c3e3844323"><path d="M 101 11 L 175 11 L 175 65.863281 L 101 65.863281 Z M 101 11 " clip-rule="nonzero"/></clipPath></defs><path fill="#161616" d="M 88.976562 16.296875 C 88.988281 16.207031 89.0625 16.132812 89.148438 16.132812 C 89.238281 16.136719 89.3125 16.210938 89.3125 16.304688 C 89.0625 28.785156 88.179688 44.539062 76.664062 61.371094 C 76.613281 61.449219 76.5 61.46875 76.425781 61.414062 C 76.351562 61.363281 76.339844 61.257812 76.390625 61.183594 C 87.855469 44.417969 88.726562 28.730469 88.976562 16.296875 Z M 88.976562 16.296875 " fill-opacity="1" fill-rule="evenodd"/><g clip-path="url(#a88832a948)"><path fill="#d8cdbf" d="M 5.511719 0.304688 L 0.179688 0.304688 L 0.179688 16.300781 L 3.890625 16.300781 L 3.890625 10.96875 L 5.511719 10.96875 Z M 5.511719 0.304688 " fill-opacity="1" fill-rule="evenodd"/><path fill="#161616" d="M 5.675781 0.304688 L 5.675781 10.96875 C 5.675781 11.0625 5.601562 11.136719 5.511719 11.136719 L 4.054688 11.136719 L 4.054688 16.300781 C 4.054688 16.390625 3.980469 16.464844 3.890625 16.464844 L 0.179688 16.464844 C 0.0820312 16.464844 0.0078125 16.390625 0.0078125 16.300781 L 0.0078125 0.304688 C 0.0078125 0.214844 0.0820312 0.136719 0.179688 0.136719 L 5.511719 0.136719 C 5.601562 0.136719 5.675781 0.214844 5.675781 0.304688 Z M 5.335938 0.472656 C 5.335938 0.472656 0.347656 0.472656 0.347656 0.472656 L 0.347656 16.132812 L 3.722656 16.132812 L 3.722656 10.96875 C 3.722656 10.875 3.796875 10.800781 3.890625 10.800781 C 3.890625 10.800781 5.335938 10.800781 5.335938 10.800781 Z M 5.335938 0.472656 " fill-opacity="1" fill-rule="evenodd"/></g><g clip-path="url(#40adde71e8)"><path fill="#d8cdbf" d="M 87.335938 0.304688 L 92.667969 0.304688 L 92.667969 16.300781 L 88.960938 16.300781 L 88.960938 10.96875 L 87.335938 10.96875 Z M 87.335938 0.304688 " fill-opacity="1" fill-rule="evenodd"/><path fill="#161616" d="M 87.335938 0.136719 L 92.667969 0.136719 C 92.769531 0.136719 92.84375 0.214844 92.84375 0.304688 L 92.84375 16.300781 C 92.84375 16.390625 92.769531 16.464844 92.667969 16.464844 L 88.960938 16.464844 C 88.871094 16.464844 88.792969 16.390625 88.792969 16.300781 L 88.792969 11.136719 L 87.335938 11.136719 C 87.246094 11.136719 87.171875 11.0625 87.171875 10.96875 L 87.171875 0.304688 C 87.171875 0.214844 87.246094 0.136719 87.335938 0.136719 Z M 87.511719 0.472656 L 87.511719 10.800781 L 88.960938 10.800781 C 89.050781 10.800781 89.125 10.875 89.125 10.96875 L 89.125 16.132812 L 92.503906 16.132812 C 92.503906 14.542969 92.503906 2.0625 92.503906 0.472656 Z M 87.511719 0.472656 " fill-opacity="1" fill-rule="evenodd"/></g><g clip-path="url(#7c111ad4a9)"><path fill="#d8cdbf" d="M 7.09375 11.945312 L 76.691406 61.269531 L 73.609375 65.621094 L 4.011719 16.296875 Z M 7.09375 11.945312 " fill-opacity="1" fill-rule="evenodd"/></g><g clip-path="url(#20550515f7)"><path fill="#161616" d="M 76.796875 61.34375 L 73.710938 65.695312 C 73.660156 65.769531 73.507812 65.753906 73.507812 65.753906 L 3.914062 16.433594 C 3.804688 16.355469 3.742188 16.21875 3.792969 16.144531 L 6.878906 11.792969 C 6.929688 11.71875 7.082031 11.734375 7.191406 11.808594 L 76.785156 61.132812 C 76.785156 61.132812 76.847656 61.269531 76.796875 61.34375 Z M 76.375 61.25 C 76.375 61.25 7.105469 12.160156 7.105469 12.160156 C 7.105469 12.160156 4.214844 16.238281 4.214844 16.238281 C 4.214844 16.238281 73.484375 65.328125 73.484375 65.328125 Z M 76.375 61.25 " fill-opacity="1" fill-rule="evenodd"/></g><path fill="#161616" d="M 89.332031 16.296875 C 89.320312 16.207031 89.246094 16.132812 89.160156 16.132812 C 89.070312 16.136719 88.996094 16.210938 88.996094 16.304688 C 89.246094 28.785156 90.128906 44.539062 101.644531 61.371094 C 101.695312 61.449219 101.808594 61.46875 101.882812 61.414062 C 101.957031 61.363281 101.96875 61.257812 101.917969 61.183594 C 90.453125 44.417969 89.582031 28.730469 89.332031 16.296875 Z M 89.332031 16.296875 " fill-opacity="1" fill-rule="evenodd"/><g clip-path="url(#742e8b7e8f)"><path fill="#d8cdbf" d="M 172.796875 0.304688 L 178.128906 0.304688 L 178.128906 16.300781 L 174.417969 16.300781 L 174.417969 10.96875 L 172.796875 10.96875 Z M 172.796875 0.304688 " fill-opacity="1" fill-rule="evenodd"/><path fill="#161616" d="M 172.632812 0.304688 L 172.632812 10.96875 C 172.632812 11.0625 172.707031 11.136719 172.796875 11.136719 L 174.253906 11.136719 L 174.253906 16.300781 C 174.253906 16.390625 174.328125 16.464844 174.417969 16.464844 L 178.128906 16.464844 C 178.226562 16.464844 178.300781 16.390625 178.300781 16.300781 L 178.300781 0.304688 C 178.300781 0.214844 178.226562 0.136719 178.128906 0.136719 L 172.796875 0.136719 C 172.707031 0.136719 172.632812 0.214844 172.632812 0.304688 Z M 172.972656 0.472656 C 172.972656 0.472656 177.960938 0.472656 177.960938 0.472656 L 177.960938 16.132812 L 174.585938 16.132812 L 174.585938 10.96875 C 174.585938 10.875 174.511719 10.800781 174.417969 10.800781 C 174.417969 10.800781 172.972656 10.800781 172.972656 10.800781 Z M 172.972656 0.472656 " fill-opacity="1" fill-rule="evenodd"/></g><g clip-path="url(#41aef97945)"><path fill="#d8cdbf" d="M 90.972656 0.304688 L 85.640625 0.304688 L 85.640625 16.300781 L 89.347656 16.300781 L 89.347656 10.96875 L 90.972656 10.96875 Z M 90.972656 0.304688 " fill-opacity="1" fill-rule="evenodd"/></g><g clip-path="url(#13faf61ca2)"><path fill="#161616" d="M 90.972656 0.136719 L 85.640625 0.136719 C 85.539062 0.136719 85.464844 0.214844 85.464844 0.304688 L 85.464844 16.300781 C 85.464844 16.390625 85.539062 16.464844 85.640625 16.464844 L 89.347656 16.464844 C 89.4375 16.464844 89.515625 16.390625 89.515625 16.300781 L 89.515625 11.136719 L 90.972656 11.136719 C 91.0625 11.136719 91.136719 11.0625 91.136719 10.96875 L 91.136719 0.304688 C 91.136719 0.214844 91.0625 0.136719 90.972656 0.136719 Z M 90.796875 0.472656 L 90.796875 10.800781 L 89.347656 10.800781 C 89.257812 10.800781 89.183594 10.875 89.183594 10.96875 L 89.183594 16.132812 L 85.804688 16.132812 C 85.804688 14.542969 85.804688 2.0625 85.804688 0.472656 Z M 90.796875 0.472656 " fill-opacity="1" fill-rule="evenodd"/></g><g clip-path="url(#c3e3844323)"><path fill="#d8cdbf" d="M 171.214844 11.945312 L 101.617188 61.269531 L 104.699219 65.621094 L 174.296875 16.296875 Z M 171.214844 11.945312 " fill-opacity="1" fill-rule="evenodd"/><path fill="#161616" d="M 101.511719 61.34375 L 104.597656 65.695312 C 104.648438 65.769531 104.800781 65.753906 104.800781 65.753906 L 174.394531 16.433594 C 174.503906 16.355469 174.566406 16.21875 174.515625 16.144531 L 171.429688 11.792969 C 171.378906 11.71875 171.226562 11.734375 171.117188 11.808594 L 101.523438 61.132812 C 101.523438 61.132812 101.460938 61.269531 101.511719 61.34375 Z M 101.933594 61.25 C 101.933594 61.25 171.203125 12.160156 171.203125 12.160156 C 171.203125 12.160156 174.09375 16.238281 174.09375 16.238281 C 174.09375 16.238281 104.824219 65.328125 104.824219 65.328125 Z M 101.933594 61.25 " fill-opacity="1" fill-rule="evenodd"/></g></svg>