<svg xmlns="http://www.w3.org/2000/svg" xmlns:xlink="http://www.w3.org/1999/xlink" width="307" zoomAndPan="magnify" viewBox="0 0 230.25 359.999994" height="480" preserveAspectRatio="xMidYMid meet" version="1.0"><defs><clipPath id="153475d31c"><path d="M 26 18 L 198 18 L 198 359.414062 L 26 359.414062 Z M 26 18 " clip-rule="nonzero"/></clipPath><clipPath id="73ae295f7d"><path d="M 26.398438 18 L 197.351562 18 L 197.351562 359.414062 L 26.398438 359.414062 Z M 26.398438 18 " clip-rule="nonzero"/></clipPath><clipPath id="5a8c05d60d"><path d="M 26.984375 359.414062 L 34 353.355469 L 34 24.828125 L 191.828125 24.101562 L 197.273438 18.175781 L 191.828125 24.101562 L 190.265625 352.757812 L 34 353.355469 L 26.988281 359.414062 M 76.234375 331.261719 L 169.175781 331.261719 L 169.175781 46.328125 L 55.085938 46.328125 L 55.085938 331.261719 L 76.234375 331.261719 " clip-rule="nonzero"/></clipPath><clipPath id="ac01469c3e"><path d="M 26.984375 359.414062 L 34 353.355469 L 34 24.828125 L 191.828125 24.101562 L 197.273438 18.175781 L 191.828125 24.101562 L 190.265625 352.757812 L 34 353.355469 L 26.988281 359.414062 M 76.234375 331.261719 L 169.175781 331.261719 L 169.175781 46.328125 L 55.085938 46.328125 L 55.085938 331.261719 L 76.234375 331.261719 " clip-rule="nonzero"/></clipPath><clipPath id="440b89c50a"><path d="M -143.296875 190.800781 L 111.128906 -67.132812 L 367.558594 186.789062 L 113.132812 444.71875 Z M -143.296875 190.800781 " clip-rule="nonzero"/></clipPath><linearGradient x1="-0.114126" gradientTransform="matrix(231.994787, 229.7219, 229.281614, -232.440266, 10.241763, 88.205412)" y1="0" x2="0.991197" gradientUnits="userSpaceOnUse" y2="0" id="999c2370cf"><stop stop-opacity="1" stop-color="rgb(68.199158%, 70.999146%, 70.999146%)" offset="0"/><stop stop-opacity="1" stop-color="rgb(68.199158%, 70.999146%, 70.999146%)" offset="0.25"/><stop stop-opacity="1" stop-color="rgb(68.199158%, 70.999146%, 70.999146%)" offset="0.375"/><stop stop-opacity="1" stop-color="rgb(68.199158%, 70.999146%, 70.999146%)" offset="0.40625"/><stop stop-opacity="1" stop-color="rgb(68.199158%, 70.999146%, 70.999146%)" offset="0.421875"/><stop stop-opacity="1" stop-color="rgb(68.006897%, 70.806885%, 70.806885%)" offset="0.429687"/><stop stop-opacity="1" stop-color="rgb(67.807007%, 70.606995%, 70.606995%)" offset="0.4375"/><stop stop-opacity="1" stop-color="rgb(67.640686%, 70.39032%, 70.39032%)" offset="0.441406"/><stop stop-opacity="1" stop-color="rgb(67.483521%, 70.1828%, 70.1828%)" offset="0.445312"/><stop stop-opacity="1" stop-color="rgb(67.286682%, 69.987488%, 69.987488%)" offset="0.449219"/><stop stop-opacity="1" stop-color="rgb(67.09137%, 69.792175%, 69.792175%)" offset="0.453125"/><stop stop-opacity="1" stop-color="rgb(66.896057%, 69.596863%, 69.596863%)" offset="0.460937"/><stop stop-opacity="1" stop-color="rgb(66.505432%, 69.206238%, 69.206238%)" offset="0.46875"/><stop stop-opacity="1" stop-color="rgb(66.114807%, 68.815613%, 68.815613%)" offset="0.476562"/><stop stop-opacity="1" stop-color="rgb(65.899658%, 68.598938%, 68.598938%)" offset="0.484375"/><stop stop-opacity="1" stop-color="rgb(65.682983%, 68.383789%, 68.383789%)" offset="0.488281"/><stop stop-opacity="1" stop-color="rgb(65.487671%, 68.188477%, 68.188477%)" offset="0.492187"/><stop stop-opacity="1" stop-color="rgb(65.292358%, 67.993164%, 67.993164%)" offset="0.5"/><stop stop-opacity="1" stop-color="rgb(64.901733%, 67.651367%, 67.651367%)" offset="0.507812"/><stop stop-opacity="1" stop-color="rgb(64.701843%, 67.30957%, 67.30957%)" offset="0.515625"/><stop stop-opacity="1" stop-color="rgb(64.299011%, 66.906738%, 66.906738%)" offset="0.519531"/><stop stop-opacity="1" stop-color="rgb(63.899231%, 66.699219%, 66.699219%)" offset="0.523437"/><stop stop-opacity="1" stop-color="rgb(63.899231%, 66.691589%, 66.691589%)" offset="0.53125"/><stop stop-opacity="1" stop-color="rgb(63.896179%, 66.488647%, 66.488647%)" offset="0.539062"/><stop stop-opacity="1" stop-color="rgb(63.697815%, 66.098022%, 66.098022%)" offset="0.542969"/><stop stop-opacity="1" stop-color="rgb(63.502502%, 65.90271%, 65.90271%)" offset="0.546875"/><stop stop-opacity="1" stop-color="rgb(63.30719%, 65.707397%, 65.707397%)" offset="0.554687"/><stop stop-opacity="1" stop-color="rgb(62.916565%, 65.316772%, 65.316772%)" offset="0.5625"/><stop stop-opacity="1" stop-color="rgb(62.559509%, 64.909363%, 64.909363%)" offset="0.566406"/><stop stop-opacity="1" stop-color="rgb(62.399292%, 64.698792%, 64.698792%)" offset="0.570312"/><stop stop-opacity="1" stop-color="rgb(62.394714%, 64.694214%, 64.694214%)" offset="0.578125"/><stop stop-opacity="1" stop-color="rgb(62.194824%, 64.494324%, 64.494324%)" offset="0.585937"/><stop stop-opacity="1" stop-color="rgb(61.804199%, 64.103699%, 64.103699%)" offset="0.59375"/><stop stop-opacity="1" stop-color="rgb(61.413574%, 63.713074%, 63.713074%)" offset="0.601562"/><stop stop-opacity="1" stop-color="rgb(60.997009%, 63.296509%, 63.296509%)" offset="0.605469"/><stop stop-opacity="1" stop-color="rgb(60.777283%, 63.076782%, 63.076782%)" offset="0.609375"/><stop stop-opacity="1" stop-color="rgb(60.58197%, 62.887573%, 62.887573%)" offset="0.617187"/><stop stop-opacity="1" stop-color="rgb(60.192871%, 62.69989%, 62.69989%)" offset="0.625"/><stop stop-opacity="1" stop-color="rgb(59.999084%, 62.554932%, 62.554932%)" offset="0.640625"/><stop stop-opacity="1" stop-color="rgb(59.785461%, 62.191772%, 62.191772%)" offset="0.644531"/><stop stop-opacity="1" stop-color="rgb(59.573364%, 61.973572%, 61.973572%)" offset="0.648437"/><stop stop-opacity="1" stop-color="rgb(59.378052%, 61.778259%, 61.778259%)" offset="0.65625"/><stop stop-opacity="1" stop-color="rgb(58.987427%, 61.387634%, 61.387634%)" offset="0.664062"/><stop stop-opacity="1" stop-color="rgb(58.596802%, 60.997009%, 60.997009%)" offset="0.671875"/><stop stop-opacity="1" stop-color="rgb(58.210754%, 60.610962%, 60.610962%)" offset="0.6875"/><stop stop-opacity="1" stop-color="rgb(57.809448%, 60.198975%, 60.198975%)" offset="0.691406"/><stop stop-opacity="1" stop-color="rgb(57.598877%, 59.979248%, 59.979248%)" offset="0.695312"/><stop stop-opacity="1" stop-color="rgb(57.591248%, 59.777832%, 59.777832%)" offset="0.699219"/><stop stop-opacity="1" stop-color="rgb(57.583618%, 59.577942%, 59.577942%)" offset="0.703125"/><stop stop-opacity="1" stop-color="rgb(57.240295%, 59.387207%, 59.387207%)" offset="0.707031"/><stop stop-opacity="1" stop-color="rgb(56.896973%, 59.197998%, 59.197998%)" offset="0.710937"/><stop stop-opacity="1" stop-color="rgb(56.70166%, 59.002686%, 59.002686%)" offset="0.71875"/><stop stop-opacity="1" stop-color="rgb(56.491089%, 58.790588%, 58.790588%)" offset="0.734375"/><stop stop-opacity="1" stop-color="rgb(56.280518%, 58.580017%, 58.580017%)" offset="0.742187"/><stop stop-opacity="1" stop-color="rgb(55.889893%, 58.189392%, 58.189392%)" offset="0.75"/><stop stop-opacity="1" stop-color="rgb(55.499268%, 57.798767%, 57.798767%)" offset="0.757812"/><stop stop-opacity="1" stop-color="rgb(55.107117%, 57.455444%, 57.455444%)" offset="0.761719"/><stop stop-opacity="1" stop-color="rgb(54.911804%, 57.30896%, 57.30896%)" offset="0.765625"/><stop stop-opacity="1" stop-color="rgb(54.891968%, 57.290649%, 57.290649%)" offset="0.773438"/><stop stop-opacity="1" stop-color="rgb(54.685974%, 57.077026%, 57.077026%)" offset="0.78125"/><stop stop-opacity="1" stop-color="rgb(54.495239%, 56.684875%, 56.684875%)" offset="0.785156"/><stop stop-opacity="1" stop-color="rgb(54.490662%, 56.489563%, 56.489563%)" offset="0.789062"/><stop stop-opacity="1" stop-color="rgb(54.295349%, 56.29425%, 56.29425%)" offset="0.796875"/><stop stop-opacity="1" stop-color="rgb(53.904724%, 55.903625%, 55.903625%)" offset="0.804687"/><stop stop-opacity="1" stop-color="rgb(53.514099%, 55.513%, 55.513%)" offset="0.8125"/><stop stop-opacity="1" stop-color="rgb(53.208923%, 55.308533%, 55.308533%)" offset="0.820312"/><stop stop-opacity="1" stop-color="rgb(52.999878%, 55.293274%, 55.293274%)" offset="0.828125"/><stop stop-opacity="1" stop-color="rgb(52.897644%, 55.091858%, 55.091858%)" offset="0.835937"/><stop stop-opacity="1" stop-color="rgb(52.700806%, 54.699707%, 54.699707%)" offset="0.839844"/><stop stop-opacity="1" stop-color="rgb(52.505493%, 54.504395%, 54.504395%)" offset="0.84375"/><stop stop-opacity="1" stop-color="rgb(52.357483%, 54.309082%, 54.309082%)" offset="0.851562"/><stop stop-opacity="1" stop-color="rgb(52.005005%, 54.10614%, 54.10614%)" offset="0.855469"/><stop stop-opacity="1" stop-color="rgb(51.799011%, 54.098511%, 54.098511%)" offset="0.859375"/><stop stop-opacity="1" stop-color="rgb(51.789856%, 54.090881%, 54.090881%)" offset="0.867188"/><stop stop-opacity="1" stop-color="rgb(51.589966%, 53.887939%, 53.887939%)" offset="0.875"/><stop stop-opacity="1" stop-color="rgb(51.399231%, 53.497314%, 53.497314%)" offset="0.882812"/><stop stop-opacity="1" stop-color="rgb(51.203918%, 53.106689%, 53.106689%)" offset="0.890625"/><stop stop-opacity="1" stop-color="rgb(50.790405%, 52.705383%, 52.705383%)" offset="0.894531"/><stop stop-opacity="1" stop-color="rgb(50.570679%, 52.49939%, 52.49939%)" offset="0.898437"/><stop stop-opacity="1" stop-color="rgb(50.37384%, 52.49176%, 52.49176%)" offset="0.902344"/><stop stop-opacity="1" stop-color="rgb(50.178528%, 52.484131%, 52.484131%)" offset="0.90625"/><stop stop-opacity="1" stop-color="rgb(49.987793%, 52.340698%, 52.340698%)" offset="0.921875"/><stop stop-opacity="1" stop-color="rgb(49.798584%, 52.001953%, 52.001953%)" offset="0.929687"/><stop stop-opacity="1" stop-color="rgb(49.606323%, 51.611328%, 51.611328%)" offset="0.9375"/><stop stop-opacity="1" stop-color="rgb(49.395752%, 51.394653%, 51.394653%)" offset="0.945312"/><stop stop-opacity="1" stop-color="rgb(49.180603%, 51.179504%, 51.179504%)" offset="0.953125"/><stop stop-opacity="1" stop-color="rgb(48.791504%, 50.791931%, 50.791931%)" offset="0.96875"/><stop stop-opacity="1" stop-color="rgb(48.599243%, 50.405884%, 50.405884%)" offset="0.976562"/><stop stop-opacity="1" stop-color="rgb(48.38562%, 50.205994%, 50.205994%)" offset="0.980469"/><stop stop-opacity="1" stop-color="rgb(48.171997%, 50.19989%, 50.19989%)" offset="0.984375"/><stop stop-opacity="1" stop-color="rgb(47.98584%, 50.190735%, 50.190735%)" offset="0.992187"/><stop stop-opacity="1" stop-color="rgb(47.799683%, 49.989319%, 49.989319%)" offset="1"/></linearGradient><clipPath id="535cb33d11"><path d="M 26.398438 18 L 197.351562 18 L 197.351562 359.414062 L 26.398438 359.414062 Z M 26.398438 18 " clip-rule="nonzero"/></clipPath><clipPath id="c34f32d878"><path d="M 26.984375 359.414062 L 26.984375 18.175781 L 197.273438 18.175781 L 191.828125 24.101562 L 34 24.828125 L 34 353.355469 L 26.984375 359.414062 " clip-rule="nonzero"/></clipPath><clipPath id="cb80866119"><path d="M 26.984375 359.414062 L 26.984375 18.175781 L 197.273438 18.175781 L 191.828125 24.101562 L 34 24.828125 L 34 353.355469 L 26.984375 359.414062 " clip-rule="nonzero"/></clipPath><clipPath id="2153defa74"><path d="M -143.296875 190.800781 L 111.128906 -67.132812 L 367.558594 186.789062 L 113.132812 444.71875 Z M -143.296875 190.800781 " clip-rule="nonzero"/></clipPath><linearGradient x1="-0.114126" gradientTransform="matrix(231.994787, 229.7219, 229.281614, -232.440266, 10.241763, 88.205412)" y1="0" x2="0.991197" gradientUnits="userSpaceOnUse" y2="0" id="86975bd4db"><stop stop-opacity="1" stop-color="rgb(75.299072%, 77.598572%, 77.598572%)" offset="0"/><stop stop-opacity="1" stop-color="rgb(75.299072%, 77.598572%, 77.598572%)" offset="0.25"/><stop stop-opacity="1" stop-color="rgb(75.299072%, 77.598572%, 77.598572%)" offset="0.375"/><stop stop-opacity="1" stop-color="rgb(75.105286%, 77.453613%, 77.453613%)" offset="0.4375"/><stop stop-opacity="1" stop-color="rgb(74.89624%, 77.294922%, 77.294922%)" offset="0.445312"/><stop stop-opacity="1" stop-color="rgb(74.687195%, 77.087402%, 77.087402%)" offset="0.453125"/><stop stop-opacity="1" stop-color="rgb(74.29657%, 76.696777%, 76.696777%)" offset="0.460937"/><stop stop-opacity="1" stop-color="rgb(73.905945%, 76.306152%, 76.306152%)" offset="0.46875"/><stop stop-opacity="1" stop-color="rgb(73.603821%, 76.104736%, 76.104736%)" offset="0.476562"/><stop stop-opacity="1" stop-color="rgb(73.397827%, 76.087952%, 76.087952%)" offset="0.484375"/><stop stop-opacity="1" stop-color="rgb(73.292542%, 75.883484%, 75.883484%)" offset="0.492187"/><stop stop-opacity="1" stop-color="rgb(73.092651%, 75.492859%, 75.492859%)" offset="0.5"/><stop stop-opacity="1" stop-color="rgb(72.703552%, 75.10376%, 75.10376%)" offset="0.515625"/><stop stop-opacity="1" stop-color="rgb(72.3526%, 74.703979%, 74.703979%)" offset="0.519531"/><stop stop-opacity="1" stop-color="rgb(72.198486%, 74.499512%, 74.499512%)" offset="0.523437"/><stop stop-opacity="1" stop-color="rgb(72.198486%, 74.491882%, 74.491882%)" offset="0.53125"/><stop stop-opacity="1" stop-color="rgb(72.195435%, 74.28894%, 74.28894%)" offset="0.539062"/><stop stop-opacity="1" stop-color="rgb(71.998596%, 73.898315%, 73.898315%)" offset="0.546875"/><stop stop-opacity="1" stop-color="rgb(71.607971%, 73.50769%, 73.50769%)" offset="0.554687"/><stop stop-opacity="1" stop-color="rgb(71.217346%, 73.304749%, 73.304749%)" offset="0.5625"/><stop stop-opacity="1" stop-color="rgb(71.009827%, 73.098755%, 73.098755%)" offset="0.566406"/><stop stop-opacity="1" stop-color="rgb(70.999146%, 72.898865%, 72.898865%)" offset="0.570312"/><stop stop-opacity="1" stop-color="rgb(70.994568%, 72.894287%, 72.894287%)" offset="0.578125"/><stop stop-opacity="1" stop-color="rgb(70.794678%, 72.694397%, 72.694397%)" offset="0.585937"/><stop stop-opacity="1" stop-color="rgb(70.404053%, 72.3526%, 72.3526%)" offset="0.59375"/><stop stop-opacity="1" stop-color="rgb(70.013428%, 72.201538%, 72.201538%)" offset="0.601562"/><stop stop-opacity="1" stop-color="rgb(69.607544%, 71.992493%, 71.992493%)" offset="0.605469"/><stop stop-opacity="1" stop-color="rgb(69.398499%, 71.788025%, 71.788025%)" offset="0.609375"/><stop stop-opacity="1" stop-color="rgb(69.396973%, 71.592712%, 71.592712%)" offset="0.625"/><stop stop-opacity="1" stop-color="rgb(69.200134%, 71.398926%, 71.398926%)" offset="0.632812"/><stop stop-opacity="1" stop-color="rgb(69.00177%, 71.206665%, 71.206665%)" offset="0.640625"/><stop stop-opacity="1" stop-color="rgb(68.785095%, 70.993042%, 70.993042%)" offset="0.644531"/><stop stop-opacity="1" stop-color="rgb(68.572998%, 70.973206%, 70.973206%)" offset="0.648437"/><stop stop-opacity="1" stop-color="rgb(68.385315%, 70.777893%, 70.777893%)" offset="0.65625"/><stop stop-opacity="1" stop-color="rgb(68.19458%, 70.387268%, 70.387268%)" offset="0.664062"/><stop stop-opacity="1" stop-color="rgb(67.996216%, 69.996643%, 69.996643%)" offset="0.671875"/><stop stop-opacity="1" stop-color="rgb(67.657471%, 69.799805%, 69.799805%)" offset="0.6875"/><stop stop-opacity="1" stop-color="rgb(67.306519%, 69.589233%, 69.589233%)" offset="0.691406"/><stop stop-opacity="1" stop-color="rgb(67.098999%, 69.378662%, 69.378662%)" offset="0.695312"/><stop stop-opacity="1" stop-color="rgb(67.092896%, 69.18335%, 69.18335%)" offset="0.703125"/><stop stop-opacity="1" stop-color="rgb(66.893005%, 68.792725%, 68.792725%)" offset="0.710937"/><stop stop-opacity="1" stop-color="rgb(66.50238%, 68.598938%, 68.598938%)" offset="0.71875"/><stop stop-opacity="1" stop-color="rgb(66.290283%, 68.586731%, 68.586731%)" offset="0.734375"/><stop stop-opacity="1" stop-color="rgb(66.079712%, 68.380737%, 68.380737%)" offset="0.742187"/><stop stop-opacity="1" stop-color="rgb(65.692139%, 67.990112%, 67.990112%)" offset="0.75"/><stop stop-opacity="1" stop-color="rgb(65.499878%, 67.648315%, 67.648315%)" offset="0.757812"/><stop stop-opacity="1" stop-color="rgb(65.306091%, 67.306519%, 67.306519%)" offset="0.765625"/><stop stop-opacity="1" stop-color="rgb(65.003967%, 67.105103%, 67.105103%)" offset="0.773438"/><stop stop-opacity="1" stop-color="rgb(64.797974%, 67.089844%, 67.089844%)" offset="0.78125"/><stop stop-opacity="1" stop-color="rgb(64.694214%, 66.885376%, 66.885376%)" offset="0.789062"/><stop stop-opacity="1" stop-color="rgb(64.494324%, 66.494751%, 66.494751%)" offset="0.796875"/><stop stop-opacity="1" stop-color="rgb(64.299011%, 66.104126%, 66.104126%)" offset="0.804687"/><stop stop-opacity="1" stop-color="rgb(64.108276%, 65.904236%, 65.904236%)" offset="0.8125"/><stop stop-opacity="1" stop-color="rgb(63.809204%, 65.899658%, 65.899658%)" offset="0.820312"/><stop stop-opacity="1" stop-color="rgb(63.600159%, 65.892029%, 65.892029%)" offset="0.828125"/><stop stop-opacity="1" stop-color="rgb(63.497925%, 65.690613%, 65.690613%)" offset="0.835937"/><stop stop-opacity="1" stop-color="rgb(63.301086%, 65.299988%, 65.299988%)" offset="0.84375"/><stop stop-opacity="1" stop-color="rgb(62.998962%, 64.99939%, 64.99939%)" offset="0.851562"/><stop stop-opacity="1" stop-color="rgb(62.791443%, 64.796448%, 64.796448%)" offset="0.859375"/><stop stop-opacity="1" stop-color="rgb(62.54425%, 64.69574%, 64.69574%)" offset="0.875"/><stop stop-opacity="1" stop-color="rgb(62.399292%, 64.497375%, 64.497375%)" offset="0.882812"/><stop stop-opacity="1" stop-color="rgb(62.203979%, 64.105225%, 64.105225%)" offset="0.886719"/><stop stop-opacity="1" stop-color="rgb(62.010193%, 63.909912%, 63.909912%)" offset="0.890625"/><stop stop-opacity="1" stop-color="rgb(61.903381%, 63.803101%, 63.803101%)" offset="0.898437"/><stop stop-opacity="1" stop-color="rgb(61.69281%, 63.597107%, 63.597107%)" offset="0.90625"/><stop stop-opacity="1" stop-color="rgb(61.393738%, 63.497925%, 63.497925%)" offset="0.921875"/><stop stop-opacity="1" stop-color="rgb(61.199951%, 63.302612%, 63.302612%)" offset="0.929687"/><stop stop-opacity="1" stop-color="rgb(61.00769%, 62.911987%, 62.911987%)" offset="0.9375"/><stop stop-opacity="1" stop-color="rgb(60.795593%, 62.698364%, 62.698364%)" offset="0.945312"/><stop stop-opacity="1" stop-color="rgb(60.583496%, 62.536621%, 62.536621%)" offset="0.953125"/><stop stop-opacity="1" stop-color="rgb(60.293579%, 62.294006%, 62.294006%)" offset="0.960938"/><stop stop-opacity="1" stop-color="rgb(60.098267%, 62.098694%, 62.098694%)" offset="0.96875"/><stop stop-opacity="1" stop-color="rgb(59.985352%, 61.999512%, 61.999512%)" offset="0.984375"/><stop stop-opacity="1" stop-color="rgb(59.785461%, 61.990356%, 61.990356%)" offset="0.992187"/><stop stop-opacity="1" stop-color="rgb(59.599304%, 61.790466%, 61.790466%)" offset="1"/></linearGradient><clipPath id="f70a998007"><path d="M 26 18 L 198 18 L 198 359.414062 L 26 359.414062 Z M 26 18 " clip-rule="nonzero"/></clipPath><clipPath id="5dc4f29ff9"><path d="M 26.398438 18 L 197.351562 18 L 197.351562 359.414062 L 26.398438 359.414062 Z M 26.398438 18 " clip-rule="nonzero"/></clipPath><clipPath id="95888e4bca"><path d="M 197.273438 359.414062 L 26.984375 359.414062 L 34 353.355469 L 190.265625 352.757812 L 191.828125 24.101562 L 197.273438 18.175781 L 197.273438 359.414062 " clip-rule="nonzero"/></clipPath><clipPath id="f308e5faa7"><path d="M 197.273438 359.414062 L 26.984375 359.414062 L 34 353.355469 L 190.265625 352.757812 L 191.828125 24.101562 L 197.273438 18.175781 L 197.273438 359.414062 " clip-rule="nonzero"/></clipPath><clipPath id="23083ed8e8"><path d="M -143.296875 190.800781 L 111.128906 -67.128906 L 367.558594 186.789062 L 113.132812 444.71875 Z M -143.296875 190.800781 " clip-rule="nonzero"/></clipPath><linearGradient x1="-0.11412" gradientTransform="matrix(231.994787, 229.7219, 229.281614, -232.440266, 10.241763, 88.205412)" y1="0" x2="0.991197" gradientUnits="userSpaceOnUse" y2="0" id="cae1160e05"><stop stop-opacity="1" stop-color="rgb(61.199951%, 64.299011%, 64.299011%)" offset="0"/><stop stop-opacity="1" stop-color="rgb(61.199951%, 64.299011%, 64.299011%)" offset="0.25"/><stop stop-opacity="1" stop-color="rgb(61.199951%, 64.299011%, 64.299011%)" offset="0.375"/><stop stop-opacity="1" stop-color="rgb(61.199951%, 64.299011%, 64.299011%)" offset="0.40625"/><stop stop-opacity="1" stop-color="rgb(61.199951%, 64.299011%, 64.299011%)" offset="0.421875"/><stop stop-opacity="1" stop-color="rgb(61.006165%, 64.10675%, 64.10675%)" offset="0.429687"/><stop stop-opacity="1" stop-color="rgb(60.806274%, 63.90686%, 63.90686%)" offset="0.4375"/><stop stop-opacity="1" stop-color="rgb(60.5896%, 63.690186%, 63.690186%)" offset="0.441406"/><stop stop-opacity="1" stop-color="rgb(60.38208%, 63.482666%, 63.482666%)" offset="0.445312"/><stop stop-opacity="1" stop-color="rgb(60.186768%, 63.287354%, 63.287354%)" offset="0.453125"/><stop stop-opacity="1" stop-color="rgb(59.796143%, 62.896729%, 62.896729%)" offset="0.460937"/><stop stop-opacity="1" stop-color="rgb(59.405518%, 62.553406%, 62.553406%)" offset="0.46875"/><stop stop-opacity="1" stop-color="rgb(59.204102%, 62.301636%, 62.301636%)" offset="0.476562"/><stop stop-opacity="1" stop-color="rgb(59.188843%, 62.097168%, 62.097168%)" offset="0.484375"/><stop stop-opacity="1" stop-color="rgb(58.982849%, 61.993408%, 61.993408%)" offset="0.488281"/><stop stop-opacity="1" stop-color="rgb(58.787537%, 61.988831%, 61.988831%)" offset="0.492187"/><stop stop-opacity="1" stop-color="rgb(58.592224%, 61.793518%, 61.793518%)" offset="0.5"/><stop stop-opacity="1" stop-color="rgb(58.201599%, 61.401367%, 61.401367%)" offset="0.503906"/><stop stop-opacity="1" stop-color="rgb(58.006287%, 61.206055%, 61.206055%)" offset="0.507812"/><stop stop-opacity="1" stop-color="rgb(58.001709%, 61.010742%, 61.010742%)" offset="0.515625"/><stop stop-opacity="1" stop-color="rgb(57.649231%, 60.606384%, 60.606384%)" offset="0.519531"/><stop stop-opacity="1" stop-color="rgb(57.299805%, 60.398865%, 60.398865%)" offset="0.523437"/><stop stop-opacity="1" stop-color="rgb(57.299805%, 60.391235%, 60.391235%)" offset="0.53125"/><stop stop-opacity="1" stop-color="rgb(57.296753%, 60.189819%, 60.189819%)" offset="0.539062"/><stop stop-opacity="1" stop-color="rgb(57.098389%, 59.797668%, 59.797668%)" offset="0.542969"/><stop stop-opacity="1" stop-color="rgb(56.903076%, 59.602356%, 59.602356%)" offset="0.546875"/><stop stop-opacity="1" stop-color="rgb(56.707764%, 59.407043%, 59.407043%)" offset="0.554688"/><stop stop-opacity="1" stop-color="rgb(56.317139%, 59.016418%, 59.016418%)" offset="0.5625"/><stop stop-opacity="1" stop-color="rgb(55.909729%, 58.610535%, 58.610535%)" offset="0.566406"/><stop stop-opacity="1" stop-color="rgb(55.699158%, 58.399963%, 58.399963%)" offset="0.570312"/><stop stop-opacity="1" stop-color="rgb(55.699158%, 58.395386%, 58.395386%)" offset="0.578125"/><stop stop-opacity="1" stop-color="rgb(55.699158%, 58.19397%, 58.19397%)" offset="0.582031"/><stop stop-opacity="1" stop-color="rgb(55.699158%, 57.998657%, 57.998657%)" offset="0.585937"/><stop stop-opacity="1" stop-color="rgb(55.503845%, 57.998657%, 57.998657%)" offset="0.59375"/><stop stop-opacity="1" stop-color="rgb(55.11322%, 57.807922%, 57.807922%)" offset="0.601562"/><stop stop-opacity="1" stop-color="rgb(54.696655%, 57.446289%, 57.446289%)" offset="0.605469"/><stop stop-opacity="1" stop-color="rgb(54.476929%, 57.276917%, 57.276917%)" offset="0.609375"/><stop stop-opacity="1" stop-color="rgb(54.281616%, 57.087708%, 57.087708%)" offset="0.617187"/><stop stop-opacity="1" stop-color="rgb(53.892517%, 56.898499%, 56.898499%)" offset="0.625"/><stop stop-opacity="1" stop-color="rgb(53.69873%, 56.706238%, 56.706238%)" offset="0.640625"/><stop stop-opacity="1" stop-color="rgb(53.485107%, 56.292725%, 56.292725%)" offset="0.644531"/><stop stop-opacity="1" stop-color="rgb(53.27301%, 56.072998%, 56.072998%)" offset="0.648437"/><stop stop-opacity="1" stop-color="rgb(53.077698%, 55.877686%, 55.877686%)" offset="0.65625"/><stop stop-opacity="1" stop-color="rgb(52.690125%, 55.487061%, 55.487061%)" offset="0.664062"/><stop stop-opacity="1" stop-color="rgb(52.49939%, 55.096436%, 55.096436%)" offset="0.671875"/><stop stop-opacity="1" stop-color="rgb(52.355957%, 54.710388%, 54.710388%)" offset="0.6875"/><stop stop-opacity="1" stop-color="rgb(52.006531%, 54.498291%, 54.498291%)" offset="0.691406"/><stop stop-opacity="1" stop-color="rgb(51.799011%, 54.478455%, 54.478455%)" offset="0.695312"/><stop stop-opacity="1" stop-color="rgb(51.78833%, 54.277039%, 54.277039%)" offset="0.699219"/><stop stop-opacity="1" stop-color="rgb(51.777649%, 54.077148%, 54.077148%)" offset="0.703125"/><stop stop-opacity="1" stop-color="rgb(51.387024%, 53.886414%, 53.886414%)" offset="0.707031"/><stop stop-opacity="1" stop-color="rgb(50.997925%, 53.697205%, 53.697205%)" offset="0.710937"/><stop stop-opacity="1" stop-color="rgb(50.802612%, 53.501892%, 53.501892%)" offset="0.71875"/><stop stop-opacity="1" stop-color="rgb(50.590515%, 53.291321%, 53.291321%)" offset="0.734375"/><stop stop-opacity="1" stop-color="rgb(50.379944%, 53.079224%, 53.079224%)" offset="0.738281"/><stop stop-opacity="1" stop-color="rgb(50.184631%, 52.883911%, 52.883911%)" offset="0.742187"/><stop stop-opacity="1" stop-color="rgb(49.989319%, 52.688599%, 52.688599%)" offset="0.75"/><stop stop-opacity="1" stop-color="rgb(49.598694%, 52.348328%, 52.348328%)" offset="0.757812"/><stop stop-opacity="1" stop-color="rgb(49.40033%, 52.006531%, 52.006531%)" offset="0.765625"/><stop stop-opacity="1" stop-color="rgb(49.385071%, 51.791382%, 51.791382%)" offset="0.773437"/><stop stop-opacity="1" stop-color="rgb(49.185181%, 51.576233%, 51.576233%)" offset="0.78125"/><stop stop-opacity="1" stop-color="rgb(48.994446%, 51.185608%, 51.185608%)" offset="0.789062"/><stop stop-opacity="1" stop-color="rgb(48.794556%, 50.794983%, 50.794983%)" offset="0.796875"/><stop stop-opacity="1" stop-color="rgb(48.403931%, 50.404358%, 50.404358%)" offset="0.804688"/><stop stop-opacity="1" stop-color="rgb(48.013306%, 50.013733%, 50.013733%)" offset="0.8125"/><stop stop-opacity="1" stop-color="rgb(47.657776%, 49.801636%, 49.801636%)" offset="0.828125"/><stop stop-opacity="1" stop-color="rgb(47.497559%, 49.59259%, 49.59259%)" offset="0.835937"/><stop stop-opacity="1" stop-color="rgb(47.30072%, 49.398804%, 49.398804%)" offset="0.84375"/><stop stop-opacity="1" stop-color="rgb(46.910095%, 49.206543%, 49.206543%)" offset="0.851562"/><stop stop-opacity="1" stop-color="rgb(46.507263%, 49.006653%, 49.006653%)" offset="0.855469"/><stop stop-opacity="1" stop-color="rgb(46.299744%, 48.999023%, 48.999023%)" offset="0.859375"/><stop stop-opacity="1" stop-color="rgb(46.290588%, 48.989868%, 48.989868%)" offset="0.867187"/><stop stop-opacity="1" stop-color="rgb(46.090698%, 48.786926%, 48.786926%)" offset="0.875"/><stop stop-opacity="1" stop-color="rgb(45.899963%, 48.396301%, 48.396301%)" offset="0.882812"/><stop stop-opacity="1" stop-color="rgb(45.704651%, 48.005676%, 48.005676%)" offset="0.890625"/><stop stop-opacity="1" stop-color="rgb(45.289612%, 47.654724%, 47.654724%)" offset="0.894531"/><stop stop-opacity="1" stop-color="rgb(45.069885%, 47.499084%, 47.499084%)" offset="0.898437"/><stop stop-opacity="1" stop-color="rgb(44.883728%, 47.488403%, 47.488403%)" offset="0.90625"/><stop stop-opacity="1" stop-color="rgb(44.699097%, 47.288513%, 47.288513%)" offset="0.921875"/><stop stop-opacity="1" stop-color="rgb(44.699097%, 46.902466%, 46.902466%)" offset="0.929687"/><stop stop-opacity="1" stop-color="rgb(44.506836%, 46.511841%, 46.511841%)" offset="0.9375"/><stop stop-opacity="1" stop-color="rgb(44.294739%, 46.295166%, 46.295166%)" offset="0.945312"/><stop stop-opacity="1" stop-color="rgb(44.082642%, 46.087646%, 46.087646%)" offset="0.953125"/><stop stop-opacity="1" stop-color="rgb(43.696594%, 45.899963%, 45.899963%)" offset="0.96875"/><stop stop-opacity="1" stop-color="rgb(43.499756%, 45.706177%, 45.706177%)" offset="0.976562"/><stop stop-opacity="1" stop-color="rgb(43.286133%, 45.504761%, 45.504761%)" offset="0.980469"/><stop stop-opacity="1" stop-color="rgb(43.07251%, 45.498657%, 45.498657%)" offset="0.984375"/><stop stop-opacity="1" stop-color="rgb(42.884827%, 45.489502%, 45.489502%)" offset="0.992187"/><stop stop-opacity="1" stop-color="rgb(42.698669%, 45.289612%, 45.289612%)" offset="1"/></linearGradient><clipPath id="218830d8aa"><path d="M 119 270 L 228.753906 270 L 228.753906 282 L 119 282 Z M 119 270 " clip-rule="nonzero"/></clipPath><clipPath id="99b687b739"><path d="M 120 164 L 228.753906 164 L 228.753906 182 L 120 182 Z M 120 164 " clip-rule="nonzero"/></clipPath></defs><path fill="#6e503d" d="M 41.035156 345.335938 L 183.226562 345.335938 L 183.226562 32.253906 L 41.035156 32.253906 Z M 41.035156 345.335938 " fill-opacity="1" fill-rule="nonzero"/><g clip-path="url(#153475d31c)"><path fill="#aeb5b5" d="M 55.085938 46.328125 L 55.085938 331.261719 L 169.175781 331.261719 L 169.175781 46.328125 L 55.085938 46.328125 M 26.984375 359.414062 L 26.984375 18.175781 L 197.273438 18.175781 L 197.273438 359.414062 L 26.984375 359.414062 " fill-opacity="1" fill-rule="nonzero"/></g><g clip-path="url(#73ae295f7d)"><g clip-path="url(#5a8c05d60d)"><g clip-path="url(#ac01469c3e)"><g clip-path="url(#440b89c50a)"><path fill="url(#999c2370cf)" d="M -143.296875 190.800781 L 111.128906 -67.128906 L 367.558594 186.789062 L 113.132812 444.71875 Z M -143.296875 190.800781 " fill-rule="nonzero"/></g></g></g></g><g clip-path="url(#535cb33d11)"><g clip-path="url(#c34f32d878)"><g clip-path="url(#cb80866119)"><g clip-path="url(#2153defa74)"><path fill="url(#86975bd4db)" d="M -143.296875 190.800781 L 111.128906 -67.128906 L 367.558594 186.789062 L 113.132812 444.71875 Z M -143.296875 190.800781 " fill-rule="nonzero"/></g></g></g></g><g clip-path="url(#f70a998007)"><path fill="#e4e7e7" d="M 197.277344 359.414062 L 26.988281 359.414062 L 197.273438 359.414062 L 197.273438 18.175781 L 197.277344 18.175781 L 197.277344 359.414062 " fill-opacity="1" fill-rule="nonzero"/></g><g clip-path="url(#5dc4f29ff9)"><g clip-path="url(#95888e4bca)"><g clip-path="url(#f308e5faa7)"><g clip-path="url(#23083ed8e8)"><path fill="url(#cae1160e05)" d="M -143.296875 190.804688 L 111.128906 -67.125 L 367.554688 186.789062 L 113.132812 444.71875 Z M -143.296875 190.804688 " fill-rule="nonzero"/></g></g></g></g><path fill="#4d382b" d="M 76.234375 331.261719 L 55.085938 331.261719 L 55.085938 46.328125 L 169.175781 46.328125 L 169.175781 69.066406 L 76.234375 69.066406 L 76.234375 331.261719 " fill-opacity="1" fill-rule="nonzero"/><path fill="#84a07f" d="M 216.941406 243.242188 C 216.394531 242.695312 218.015625 241.839844 219.515625 240.496094 C 213.101562 239.613281 206.878906 239.421875 200.882812 239.765625 C 199.015625 240.457031 197.1875 241.050781 195.054688 241.050781 C 195.648438 241.050781 195.871094 240.683594 195.960938 240.179688 C 187.453125 241.101562 179.4375 243.074219 172.035156 245.683594 C 171.25 247.5 170.1875 249.035156 168.246094 249.683594 C 168.089844 248.90625 167.863281 248.125 167.617188 247.34375 C 138.019531 259.140625 119.226562 280.265625 119.226562 280.265625 C 169.21875 248.363281 187.773438 245.230469 222.304688 248.121094 C 220.09375 246.878906 218.070312 245.507812 216.941406 243.242188 " fill-opacity="1" fill-rule="nonzero"/><path fill="#84a07f" d="M 174.949219 215.144531 C 174.949219 213.355469 176.429688 212.675781 177.324219 211.726562 C 170.875 213.710938 162.761719 216.871094 154.671875 221.742188 C 154.140625 224.378906 152.332031 224.910156 150.019531 224.753906 C 135.023438 235.148438 121.253906 251.941406 119.789062 278.835938 C 136.441406 244.507812 139.25 232.828125 177.664062 214.425781 C 176.777344 214.605469 175.875 214.835938 174.949219 215.144531 " fill-opacity="1" fill-rule="nonzero"/><g clip-path="url(#218830d8aa)"><path fill="#84a07f" d="M 224.742188 278.46875 C 225.855469 278.46875 227.285156 278.46875 228.667969 278.46875 C 223.09375 275.964844 217.128906 274.152344 210.96875 272.875 C 209.808594 272.9375 208.65625 272.902344 207.507812 272.714844 C 206.964844 272.714844 207.648438 272.710938 208.34375 272.363281 C 199.742188 270.804688 190.816406 270.246094 182.085938 270.351562 C 179.972656 271.109375 178.253906 271.753906 175.90625 271.753906 C 175.234375 271.078125 176.441406 270.878906 176.894531 270.488281 C 146.125 271.734375 119.101562 280.386719 119.101562 280.386719 C 142.121094 275.589844 167.707031 274.089844 191.226562 275.757812 C 191.226562 275.382812 191.226562 275.007812 191.226562 274.632812 C 192.730469 275.007812 194.085938 275.53125 195.410156 276.089844 C 206.960938 277.109375 217.933594 278.910156 227.757812 281.480469 C 227.097656 280.207031 226.394531 279.019531 224.742188 278.46875 " fill-opacity="1" fill-rule="nonzero"/></g><path fill="#84a07f" d="M 111.746094 240.09375 C 111.746094 238.785156 111.761719 237.480469 112.367188 236.171875 C 110.449219 231.316406 108 226.46875 104.855469 221.863281 C 104.339844 222.15625 103.792969 222.488281 103.128906 222.820312 C 103.128906 221.804688 103.121094 220.519531 102.980469 219.253906 C 96.949219 211.296875 88.691406 204.253906 77.390625 199.445312 C 78.882812 200.90625 80.289062 202.449219 82.0625 203.632812 C 80.1875 203.632812 78.460938 203.636719 76.761719 203.753906 C 85.417969 213.316406 93.355469 223.070312 100.003906 233.402344 C 101.65625 234.136719 103.023438 235.191406 104.085938 236.253906 C 104.496094 237.074219 104.023438 237.898438 103.28125 238.71875 C 110.738281 251.414062 116.195312 265.039062 118.628906 280.285156 C 118.628906 280.285156 120.757812 260.714844 113.796875 240.09375 C 113.1875 240.09375 112.554688 240.09375 111.746094 240.09375 " fill-opacity="1" fill-rule="nonzero"/><path fill="#84a07f" d="M 75.1875 262.421875 C 73.90625 261.597656 72.636719 260.753906 71.738281 259.335938 C 65.773438 258.152344 59.472656 257.492188 52.976562 257.675781 C 52.933594 258.367188 52.914062 259.117188 52.820312 259.980469 C 51.828125 259.339844 50.5625 258.53125 49.230469 257.871094 C 37.625 258.773438 25.507812 262.441406 13.652344 270.511719 C 16.027344 269.96875 18.429688 269.5625 20.707031 268.570312 C 19.519531 270.414062 18.433594 272.117188 17.476562 273.855469 C 32.316406 271.386719 46.886719 269.75 61.210938 269.742188 C 62.976562 268.582031 64.871094 267.902344 66.585938 267.527344 C 67.648438 267.648438 68.15625 268.625 68.492188 269.878906 C 85.640625 270.5625 102.4375 273.816406 118.910156 281.054688 C 118.910156 281.054688 101.089844 266.589844 76.480469 260.40625 C 76.097656 261.003906 75.695312 261.628906 75.1875 262.421875 " fill-opacity="1" fill-rule="nonzero"/><path fill="#84a07f" d="M 117.617188 278.867188 C 117.617188 278.867188 115.144531 268.128906 107.496094 256.25 C 105.585938 255.625 104.925781 254.546875 104.867188 252.414062 C 102.101562 248.628906 98.792969 244.835938 94.859375 241.332031 C 94.625 241.839844 94.394531 242.351562 94.160156 242.859375 C 92.996094 241.40625 92.785156 239.597656 91.609375 238.625 L 91.550781 238.582031 C 91.390625 238.453125 91.210938 238.335938 91.003906 238.246094 C 91.210938 238.335938 91.390625 238.453125 91.550781 238.582031 C 86.265625 234.46875 79.988281 230.914062 72.558594 228.492188 C 73.527344 229.203125 74.488281 229.996094 75.335938 231.050781 C 72.914062 230.929688 70.179688 229.972656 67.488281 229.535156 C 74.703125 234.238281 81.027344 238.832031 86.523438 243.234375 C 88.191406 243.6875 89.53125 245.714844 91.695312 245.949219 C 91.355469 246.21875 90.996094 246.429688 90.625 246.605469 C 107.113281 260.5625 115.175781 272.277344 117.617188 278.867188 " fill-opacity="1" fill-rule="nonzero"/><path fill="#84a07f" d="M 122.113281 349.617188 C 110.066406 335.328125 104.933594 327.664062 107.667969 312.667969 C 107.261719 311.558594 106.960938 310.417969 106.960938 309.171875 C 106.960938 310.003906 107.496094 310.292969 108.109375 310.511719 C 109.800781 302.855469 113.367188 293.308594 118.933594 280.242188 C 118.933594 280.242188 97.609375 300.992188 100.84375 324.558594 C 101.511719 324.203125 102.316406 323.96875 103.128906 323.5625 C 102.507812 326.671875 103.089844 329.777344 103.054688 332.886719 C 105.449219 338.871094 109.699219 344.898438 116.535156 350.695312 C 116.535156 349.964844 116.535156 349.238281 116.535156 348.507812 C 118.449219 350.425781 120.363281 352.347656 122.277344 354.265625 C 121.953125 352.628906 121.964844 351.105469 122.113281 349.617188 " fill-opacity="1" fill-rule="nonzero"/><path fill="#84a07f" d="M 193.957031 314.699219 C 190.949219 309.015625 186.613281 304.273438 181.515625 300.3125 C 180.074219 300.171875 178.972656 299.609375 178.726562 298.273438 C 175.394531 295.972656 171.800781 293.984375 168.097656 292.238281 C 166.699219 292.378906 165.421875 292.40625 164.414062 291.902344 C 164.210938 291.496094 164.113281 290.992188 164.074219 290.449219 C 142.492188 281.496094 118.714844 280.519531 118.714844 280.519531 C 131.527344 283.570312 141.351562 286.015625 149.339844 288.464844 C 151.335938 287.765625 152.75 288.511719 153.863281 289.917969 C 171.105469 295.761719 179.402344 302.308594 193.898438 317.625 C 193.761719 316.652344 193.535156 315.710938 193.144531 314.925781 C 193.414062 314.65625 193.683594 314.617188 193.957031 314.699219 " fill-opacity="1" fill-rule="nonzero"/><path fill="#84a07f" d="M 133.769531 218.023438 C 133.769531 217.476562 133.769531 216.84375 133.769531 216.183594 C 129.390625 220.625 126.324219 225.644531 124.191406 230.773438 C 124.726562 232.808594 124.03125 234.339844 122.554688 235.261719 C 117.808594 250.34375 120.210938 265.191406 120.660156 268.003906 C 123.722656 241.933594 127.265625 231.054688 136.300781 217.476562 C 135.457031 217.691406 134.613281 217.882812 133.769531 218.023438 " fill-opacity="1" fill-rule="nonzero"/><path fill="#84a07f" d="M 78.128906 279.324219 C 78.480469 279.679688 78.832031 280.035156 79.1875 280.386719 C 77.351562 281.613281 74.734375 281.273438 72.335938 281.371094 C 67.851562 283.328125 63.710938 286.113281 60.292969 289.984375 C 60.46875 289.984375 60.679688 289.984375 60.992188 289.984375 C 59.824219 291.152344 59.726562 292.320312 59.824219 293.492188 C 61.90625 292.148438 63.824219 290.929688 65.617188 289.820312 C 65.460938 288.875 65.421875 287.761719 66.738281 287.101562 C 67.539062 287.101562 67.664062 287.773438 67.6875 288.546875 C 83.914062 278.742188 90.023438 278.652344 118.714844 280.847656 C 121.480469 281.058594 98.152344 273.730469 78.128906 279.324219 " fill-opacity="1" fill-rule="nonzero"/><path fill="#84a07f" d="M 68.652344 318.765625 L 68.5625 318.648438 C 68.273438 318.71875 67.984375 318.765625 67.695312 318.765625 L 68.652344 318.765625 " fill-opacity="1" fill-rule="nonzero"/><path fill="#84a07f" d="M 88.953125 294.152344 C 89.40625 294.367188 89.71875 294.789062 89.71875 295.738281 C 88.019531 295.171875 86.320312 296.28125 84.621094 297.085938 C 82.292969 298.761719 80.050781 300.554688 77.96875 302.457031 C 78.753906 302.457031 79.503906 302.457031 80.144531 302.457031 C 79.402344 305.433594 76.355469 305.527344 74.128906 306.3125 C 71.460938 309.292969 69.257812 312.492188 67.761719 315.890625 C 69.484375 315.941406 67.855469 317.671875 68.5625 318.648438 C 69.414062 318.441406 70.265625 317.996094 71.121094 317.738281 C 87.128906 298.925781 116.078125 281.949219 117.835938 281.070312 C 121.367188 279.300781 104.453125 284.238281 88.953125 294.152344 " fill-opacity="1" fill-rule="nonzero"/><path fill="#84a07f" d="M 154.496094 303.449219 C 154.027344 303.417969 153.523438 303.414062 152.921875 303.414062 C 152.921875 302.769531 152.921875 302.121094 152.921875 301.472656 C 150.222656 298.265625 147.175781 295.464844 144.039062 293.039062 C 141.214844 291.777344 138.753906 289.789062 135.683594 289.023438 C 136.554688 289.023438 137.421875 289.023438 138.285156 289.023438 C 127.363281 282.160156 117.253906 279.683594 118.773438 280.683594 C 142.082031 296.046875 147.738281 300.589844 159.53125 328.171875 C 159.816406 326.921875 159.195312 325.21875 160.582031 324.523438 C 161.035156 325.886719 161.925781 327.027344 162.933594 328.066406 C 162.957031 318.195312 159.492188 310.046875 154.496094 303.449219 " fill-opacity="1" fill-rule="nonzero"/><path fill="#84a07f" d="M 142.386719 310.132812 C 142.753906 310.132812 143.257812 310.132812 143.789062 310.132812 C 137.539062 294.332031 118.550781 280.902344 118.550781 280.902344 C 136.46875 301.742188 140.75 309.847656 144.304688 324.773438 C 144.304688 323.085938 144.304688 321.144531 144.304688 319.726562 C 144.304688 321.382812 144.308594 322.320312 145.546875 322.546875 C 146.007812 319.324219 145.667969 316.085938 144.746094 312.910156 C 143.523438 312.425781 144.101562 310.132812 142.386719 310.132812 " fill-opacity="1" fill-rule="nonzero"/><path fill="#84a07f" d="M 161.03125 264.257812 C 160.488281 264.179688 159.933594 264.121094 159.363281 264.101562 C 156.703125 264.21875 155.699219 265.996094 152.921875 265.996094 C 153.375 265.542969 153.609375 265.085938 153.734375 264.53125 C 138.519531 267.183594 118.5625 280.71875 118.5625 280.71875 C 132.210938 273.191406 140.65625 269.765625 162.28125 265.363281 C 161.730469 265 161.160156 264.691406 161.03125 264.257812 " fill-opacity="1" fill-rule="nonzero"/><path fill="#84a07f" d="M 114.691406 275.890625 C 114.691406 275.890625 106.089844 260.121094 86.3125 258.980469 C 101.421875 264.339844 106.820312 267.496094 114.691406 275.890625 " fill-opacity="1" fill-rule="nonzero"/><path fill="#84a07f" d="M 124.195312 301.496094 C 124.359375 301.328125 124.554688 301.285156 124.769531 301.308594 C 125.296875 290.882812 118.394531 280.375 118.394531 280.375 C 124.164062 293.683594 122.535156 299.4375 122.464844 309.488281 C 123.351562 307.953125 123.949219 306.339844 124.320312 304.699219 C 124.011719 303.632812 123.839844 302.5625 124.195312 301.496094 " fill-opacity="1" fill-rule="nonzero"/><path fill="#84a07f" d="M 118.714844 280.550781 C 121.933594 279.34375 125.289062 278.375 128.648438 277.546875 C 132.015625 276.722656 135.421875 276.066406 138.859375 275.601562 C 142.292969 275.136719 145.753906 274.863281 149.21875 274.832031 C 152.679688 274.789062 156.152344 274.996094 159.570312 275.550781 C 162.988281 276.089844 166.359375 276.945312 169.59375 278.171875 C 172.820312 279.4375 175.875 281.113281 178.671875 283.152344 C 184.300781 287.234375 188.515625 293.027344 191.40625 299.335938 L 191.644531 299.234375 C 188.804688 292.863281 184.613281 286.964844 178.953125 282.777344 C 176.140625 280.683594 173.058594 278.953125 169.804688 277.636719 C 166.539062 276.363281 163.132812 275.460938 159.679688 274.875 C 156.222656 274.277344 152.714844 274.039062 149.214844 274.039062 C 145.714844 274.039062 142.214844 274.277344 138.742188 274.710938 C 135.269531 275.148438 131.824219 275.777344 128.414062 276.574219 C 125.003906 277.378906 121.640625 278.3125 118.320312 279.519531 L 118.714844 280.550781 " fill-opacity="1" fill-rule="nonzero"/><path fill="#84a07f" d="M 175.714844 283.703125 C 177.796875 285.800781 188.746094 296.933594 194.28125 304.65625 C 194.78125 305.351562 195.863281 304.765625 195.546875 303.96875 C 192.855469 297.234375 187.394531 288.023438 179.050781 280.304688 C 178.808594 280.078125 178.429688 280.042969 178.152344 280.234375 C 176.625 281.273438 175.90625 282.277344 175.589844 282.855469 C 175.4375 283.136719 175.488281 283.476562 175.714844 283.703125 " fill-opacity="1" fill-rule="nonzero"/><path fill="#84a07f" d="M 118.207031 278.648438 C 116.078125 273.304688 113.453125 268.25 110.578125 263.320312 C 107.675781 258.410156 104.480469 253.671875 100.980469 249.175781 C 97.480469 244.675781 93.671875 240.417969 89.554688 236.46875 C 88.507812 235.507812 87.492188 234.5 86.414062 233.570312 L 83.160156 230.796875 L 79.769531 228.1875 C 78.652344 227.304688 77.4375 226.550781 76.273438 225.726562 C 71.53125 222.570312 66.554688 219.742188 61.289062 217.546875 C 59.996094 216.945312 58.632812 216.519531 57.304688 215.996094 L 55.304688 215.246094 L 53.257812 214.628906 C 51.890625 214.238281 50.539062 213.773438 49.15625 213.445312 L 44.988281 212.503906 C 39.398438 211.453125 33.71875 210.738281 28.027344 210.792969 C 25.179688 210.679688 22.339844 210.925781 19.5 211.082031 C 18.078125 211.125 16.675781 211.367188 15.261719 211.527344 L 11.03125 212.066406 L 11.128906 212.695312 L 15.339844 212.179688 C 16.742188 212.023438 18.136719 211.789062 19.550781 211.753906 C 22.375 211.617188 25.191406 211.378906 28.019531 211.507812 C 33.671875 211.480469 39.292969 212.214844 44.828125 213.28125 L 48.953125 214.230469 C 50.324219 214.5625 51.660156 215.03125 53.011719 215.425781 L 55.035156 216.042969 L 57.011719 216.796875 C 58.324219 217.320312 59.667969 217.75 60.949219 218.347656 C 66.148438 220.546875 71.0625 223.367188 75.742188 226.515625 C 76.890625 227.335938 78.089844 228.085938 79.195312 228.96875 L 82.535156 231.566406 L 85.746094 234.324219 C 86.8125 235.25 87.808594 236.25 88.84375 237.210938 C 92.902344 241.140625 96.65625 245.378906 100.109375 249.851562 C 103.558594 254.328125 106.703125 259.039062 109.554688 263.917969 C 112.375 268.804688 114.972656 273.871094 117.027344 279.089844 L 118.207031 278.648438 " fill-opacity="1" fill-rule="nonzero"/><path fill="#84a07f" d="M 119.195312 279.882812 C 115.15625 278.503906 111.089844 277.429688 106.96875 276.480469 C 102.855469 275.53125 98.695312 274.773438 94.515625 274.1875 C 86.160156 273.03125 77.683594 272.597656 69.253906 273.179688 C 65.046875 273.492188 60.855469 274.058594 56.714844 274.914062 C 52.589844 275.824219 48.53125 277.046875 44.605469 278.597656 C 40.679688 280.175781 36.941406 282.183594 33.398438 284.480469 C 29.871094 286.8125 26.664062 289.589844 23.675781 292.566406 L 24 292.882812 C 27 289.960938 30.207031 287.25 33.722656 284.976562 C 37.261719 282.746094 40.976562 280.800781 44.875 279.285156 C 48.78125 277.796875 52.804688 276.632812 56.894531 275.78125 C 60.996094 274.980469 65.152344 274.46875 69.324219 274.207031 C 77.671875 273.726562 86.058594 274.257812 94.328125 275.492188 C 98.460938 276.125 102.574219 276.921875 106.636719 277.902344 C 110.691406 278.890625 114.746094 280.011719 118.648438 281.394531 L 119.195312 279.882812 " fill-opacity="1" fill-rule="nonzero"/><path fill="#84a07f" d="M 37.066406 213.601562 C 34.117188 213.40625 18.546875 212.441406 9.097656 213.332031 C 8.25 213.414062 7.980469 212.210938 8.789062 211.925781 C 15.625 209.539062 26.140625 207.613281 37.429688 208.847656 C 37.761719 208.882812 38.039062 209.148438 38.078125 209.480469 C 38.296875 211.316406 38.011719 212.519531 37.785156 213.140625 C 37.675781 213.4375 37.382812 213.621094 37.066406 213.601562 " fill-opacity="1" fill-rule="nonzero"/><path fill="#84a07f" d="M 47.734375 280.492188 C 43.71875 282.296875 31.28125 287.136719 23.917969 293.5625 C 23.074219 294.296875 21.84375 293.230469 22.449219 292.289062 C 26.910156 285.363281 34.773438 281.175781 45.671875 276.183594 C 46.449219 275.828125 47.382812 276.09375 47.839844 276.8125 C 48.207031 277.382812 48.453125 277.894531 48.621094 278.332031 C 48.945312 279.175781 48.558594 280.121094 47.734375 280.492188 " fill-opacity="1" fill-rule="nonzero"/><path fill="#84a07f" d="M 5.496094 69.046875 C 5.9375 68.414062 4.195312 67.855469 2.484375 66.796875 C 8.644531 64.804688 14.738281 63.527344 20.703125 62.816406 C 22.660156 63.171875 24.566406 63.4375 26.664062 63.0625 C 26.082031 63.167969 25.792969 62.847656 25.625 62.363281 C 34.160156 61.785156 42.394531 62.324219 50.136719 63.601562 C 51.226562 65.25 52.539062 66.578125 54.566406 66.878906 C 54.585938 66.082031 54.667969 65.273438 54.78125 64.460938 C 85.976562 70.90625 108.164062 88.410156 108.164062 88.410156 C 53.378906 65.746094 34.5625 65.90625 1.066406 74.792969 C 3.027344 73.183594 4.78125 71.476562 5.496094 69.046875 " fill-opacity="1" fill-rule="nonzero"/><path fill="#84a07f" d="M 41.949219 34.042969 C 41.640625 32.273438 40.058594 31.867188 39.015625 31.085938 C 45.707031 31.917969 54.25 33.605469 63.0625 36.988281 C 64.046875 39.492188 65.917969 39.699219 68.171875 39.140625 C 84.746094 46.75 101.230469 60.878906 107.359375 87.105469 C 84.980469 56.21875 80.179688 45.210938 39.148438 33.804688 C 40.054688 33.828125 40.984375 33.894531 41.949219 34.042969 " fill-opacity="1" fill-rule="nonzero"/><path fill="#84a07f" d="M 3.953125 105.097656 C 2.855469 105.296875 1.445312 105.542969 0.0859375 105.789062 C 5.140625 102.347656 10.699219 99.519531 16.539062 97.1875 C 17.695312 97.042969 18.820312 96.808594 19.921875 96.414062 C 20.453125 96.324219 19.78125 96.441406 19.035156 96.21875 C 27.234375 93.179688 35.921875 91.070312 44.539062 89.648438 C 46.753906 90.023438 48.558594 90.359375 50.871094 89.945312 C 51.414062 89.164062 50.1875 89.179688 49.671875 88.875 C 80.1875 84.71875 108.304688 88.511719 108.304688 88.511719 C 84.800781 87.816406 59.347656 90.8125 36.480469 96.570312 C 36.417969 96.199219 36.351562 95.832031 36.285156 95.457031 C 34.867188 96.09375 33.625 96.847656 32.417969 97.628906 C 21.21875 100.652344 10.734375 104.34375 1.507812 108.589844 C 1.9375 107.222656 2.421875 105.929688 3.953125 105.097656 " fill-opacity="1" fill-rule="nonzero"/><path fill="#84a07f" d="M 108.527344 47.546875 C 108.300781 46.261719 108.058594 44.980469 107.234375 43.800781 C 108.273438 38.683594 109.84375 33.476562 112.136719 28.394531 C 112.691406 28.59375 113.289062 28.824219 114.003906 29.039062 C 113.828125 28.035156 113.609375 26.769531 113.527344 25.496094 C 118.078125 16.609375 124.984375 8.230469 135.273438 1.515625 C 134.058594 3.214844 132.941406 4.984375 131.40625 6.457031 C 133.25 6.128906 134.953125 5.832031 136.644531 5.648438 C 129.785156 16.578125 123.671875 27.570312 118.921875 38.90625 C 117.425781 39.921875 116.261719 41.195312 115.402344 42.429688 C 115.140625 43.3125 115.746094 44.039062 116.625 44.71875 C 111.492188 58.519531 108.496094 72.890625 108.753906 88.328125 C 108.753906 88.328125 103.246094 69.433594 106.507812 47.90625 C 107.109375 47.800781 107.734375 47.691406 108.527344 47.546875 " fill-opacity="1" fill-rule="nonzero"/><path fill="#84a07f" d="M 148.414062 63.140625 C 149.53125 62.105469 150.636719 61.054688 151.273438 59.5 C 156.941406 57.289062 163.03125 55.539062 169.460938 54.582031 C 169.621094 55.257812 169.769531 55.992188 170.011719 56.828125 C 170.882812 56.023438 171.984375 55.007812 173.179688 54.121094 C 184.761719 52.980469 197.335938 54.472656 210.414062 60.347656 C 207.980469 60.230469 205.546875 60.25 203.132812 59.671875 C 204.617188 61.277344 205.984375 62.761719 207.234375 64.308594 C 192.191406 64.472656 177.558594 65.410156 163.453125 67.902344 C 161.511719 67.070312 159.527344 66.734375 157.773438 66.667969 C 156.746094 66.96875 156.421875 68.023438 156.308594 69.3125 C 139.539062 72.988281 123.570312 79.128906 108.609375 89.140625 C 108.609375 89.140625 123.640625 71.777344 146.789062 61.382812 C 147.273438 61.90625 147.773438 62.449219 148.414062 63.140625 " fill-opacity="1" fill-rule="nonzero"/><path fill="#84a07f" d="M 109.5 86.757812 C 109.5 86.757812 110.070312 75.75 115.527344 62.714844 C 117.296875 61.765625 117.761719 60.589844 117.449219 58.480469 C 119.511719 54.273438 122.109375 49.957031 125.371094 45.816406 C 125.6875 46.277344 126.007812 46.738281 126.324219 47.199219 C 127.21875 45.5625 127.113281 43.75 128.097656 42.585938 L 128.148438 42.53125 C 128.285156 42.375 128.441406 42.230469 128.628906 42.101562 C 128.441406 42.230469 128.285156 42.375 128.148438 42.53125 C 132.636719 37.554688 138.199219 32.960938 145.089844 29.273438 C 144.261719 30.144531 143.453125 31.09375 142.804688 32.277344 C 145.167969 31.734375 147.695312 30.316406 150.265625 29.417969 C 143.980469 35.304688 138.554688 40.9375 133.910156 46.230469 C 132.347656 46.972656 131.378906 49.199219 129.292969 49.808594 C 129.671875 50.019531 130.0625 50.160156 130.460938 50.269531 C 116.65625 66.898438 110.757812 79.84375 109.5 86.757812 " fill-opacity="1" fill-rule="nonzero"/><path fill="#84a07f" d="M 117.402344 157.207031 C 126.773438 141.027344 130.492188 132.585938 125.183594 118.300781 C 125.394531 117.132812 125.496094 115.957031 125.277344 114.730469 C 125.421875 115.550781 124.941406 115.929688 124.378906 116.253906 C 121.375 109.011719 116.203125 100.234375 108.441406 88.339844 C 108.441406 88.339844 133.054688 105.042969 133.976562 128.8125 C 133.261719 128.578125 132.425781 128.488281 131.554688 128.230469 C 132.710938 131.183594 132.679688 134.34375 133.25 137.398438 C 131.933594 143.710938 128.804688 150.390625 123.082031 157.292969 C 122.957031 156.574219 122.828125 155.855469 122.699219 155.140625 C 121.148438 157.363281 119.597656 159.589844 118.050781 161.8125 C 118.085938 160.144531 117.808594 158.648438 117.402344 157.207031 " fill-opacity="1" fill-rule="nonzero"/><path fill="#84a07f" d="M 40.582031 135.390625 C 42.546875 129.265625 45.992188 123.839844 50.320312 119.050781 C 51.714844 118.65625 52.703125 117.910156 52.710938 116.550781 C 55.59375 113.707031 58.785156 111.117188 62.125 108.75 C 63.527344 108.644531 64.789062 108.449219 65.691406 107.777344 C 65.824219 107.339844 65.832031 106.828125 65.78125 106.285156 C 85.46875 93.695312 108.707031 88.574219 108.707031 88.574219 C 96.625 93.820312 87.378906 97.945312 79.9375 101.753906 C 77.851562 101.414062 76.589844 102.394531 75.738281 103.976562 C 59.777344 112.746094 52.75 120.640625 41.148438 138.261719 C 41.113281 137.277344 41.167969 136.3125 41.421875 135.472656 C 41.105469 135.253906 40.832031 135.261719 40.582031 135.390625 " fill-opacity="1" fill-rule="nonzero"/><path fill="#84a07f" d="M 82.996094 29.675781 C 82.898438 29.132812 82.789062 28.511719 82.675781 27.859375 C 87.761719 31.464844 91.652344 35.875 94.652344 40.550781 C 94.476562 42.648438 95.429688 44.035156 97.046875 44.679688 C 104.34375 58.703125 104.566406 73.746094 104.613281 76.589844 C 97.058594 51.460938 91.667969 41.367188 80.414062 29.574219 C 81.277344 29.640625 82.140625 29.683594 82.996094 29.675781 " fill-opacity="1" fill-rule="nonzero"/><path fill="#84a07f" d="M 148.46875 80.300781 C 148.179688 80.710938 147.890625 81.121094 147.609375 81.535156 C 149.628906 82.417969 152.144531 81.628906 154.527344 81.300781 C 159.28125 82.445312 163.839844 84.460938 167.882812 87.675781 C 167.710938 87.707031 167.503906 87.742188 167.195312 87.796875 C 168.546875 88.746094 168.847656 89.878906 168.953125 91.050781 C 166.667969 90.089844 164.570312 89.226562 162.613281 88.441406 C 162.597656 87.488281 162.445312 86.386719 161.035156 85.96875 C 160.25 86.109375 160.238281 86.789062 160.347656 87.554688 C 142.667969 80.742188 136.636719 81.71875 108.765625 88.898438 C 106.078125 89.589844 127.773438 78.292969 148.46875 80.300781 " fill-opacity="1" fill-rule="nonzero"/><path fill="#84a07f" d="M 164.664062 117.480469 L 164.734375 117.347656 C 165.03125 117.367188 165.324219 117.359375 165.605469 117.3125 L 164.664062 117.480469 " fill-opacity="1" fill-rule="nonzero"/><path fill="#84a07f" d="M 140.386719 96.792969 C 139.980469 97.085938 139.746094 97.554688 139.910156 98.488281 C 141.484375 97.632812 143.351562 98.429688 145.164062 98.925781 C 147.75 100.167969 150.273438 101.539062 152.652344 103.046875 C 151.878906 103.183594 151.140625 103.316406 150.507812 103.429688 C 151.757812 106.230469 154.777344 105.789062 157.105469 106.175781 C 160.25 108.636719 162.976562 111.40625 165.042969 114.496094 C 163.355469 114.839844 165.261719 116.265625 164.734375 117.347656 C 163.859375 117.292969 162.941406 117.003906 162.054688 116.898438 C 143.015625 101.171875 111.550781 89.519531 109.671875 88.964844 C 105.886719 87.839844 123.398438 89.746094 140.386719 96.792969 " fill-opacity="1" fill-rule="nonzero"/><path fill="#84a07f" d="M 77.46875 117.410156 C 77.929688 117.296875 78.421875 117.207031 79.015625 117.101562 C 78.902344 116.460938 78.789062 115.828125 78.675781 115.1875 C 80.777344 111.5625 83.289062 108.269531 85.957031 105.328125 C 88.515625 103.597656 90.59375 101.210938 93.480469 99.914062 C 92.625 100.070312 91.773438 100.21875 90.917969 100.371094 C 100.480469 91.703125 110 87.496094 108.683594 88.746094 C 88.40625 107.953125 83.625 113.410156 76.820312 142.636719 C 76.320312 141.457031 76.640625 139.667969 75.148438 139.226562 C 74.941406 140.648438 74.265625 141.929688 73.453125 143.121094 C 71.707031 133.410156 73.699219 124.78125 77.46875 117.410156 " fill-opacity="1" fill-rule="nonzero"/><path fill="#84a07f" d="M 90.558594 121.871094 C 90.199219 121.933594 89.703125 122.023438 89.175781 122.117188 C 92.582031 105.46875 108.9375 88.925781 108.9375 88.925781 C 94.925781 112.578125 92.121094 121.308594 91.222656 136.628906 C 90.929688 134.960938 90.589844 133.050781 90.34375 131.65625 C 90.632812 133.289062 90.789062 134.210938 89.613281 134.652344 C 88.59375 131.558594 88.363281 128.308594 88.71875 125.023438 C 89.839844 124.328125 88.871094 122.171875 90.558594 121.871094 " fill-opacity="1" fill-rule="nonzero"/><path fill="#84a07f" d="M 64.207031 79.964844 C 64.730469 79.796875 65.265625 79.640625 65.824219 79.515625 C 68.464844 79.167969 69.761719 80.746094 72.496094 80.257812 C 71.972656 79.890625 71.660156 79.480469 71.441406 78.957031 C 86.886719 78.90625 108.894531 88.742188 108.894531 88.742188 C 94.144531 83.722656 85.230469 81.824219 63.171875 81.269531 C 63.652344 80.816406 64.15625 80.414062 64.207031 79.964844 " fill-opacity="1" fill-rule="nonzero"/><path fill="#84a07f" d="M 111.867188 83.3125 C 111.867188 83.3125 117.585938 66.28125 136.863281 61.699219 C 122.917969 69.621094 118.148438 73.671875 111.867188 83.3125 " fill-opacity="1" fill-rule="nonzero"/><path fill="#84a07f" d="M 106.96875 110.1875 C 106.777344 110.054688 106.578125 110.042969 106.371094 110.101562 C 104.035156 99.933594 109 88.375 109 88.375 C 105.636719 102.492188 108.246094 107.867188 110.066406 117.757812 C 108.921875 116.398438 108.050781 114.917969 107.402344 113.363281 C 107.519531 112.257812 107.503906 111.175781 106.96875 110.1875 " fill-opacity="1" fill-rule="nonzero"/><path fill="#84a07f" d="M 108.710938 88.605469 C 105.335938 87.980469 101.867188 87.613281 98.410156 87.382812 C 94.953125 87.164062 91.480469 87.109375 88.019531 87.253906 C 84.554688 87.394531 81.101562 87.734375 77.683594 88.308594 C 74.265625 88.875 70.882812 89.683594 67.617188 90.824219 C 64.34375 91.960938 61.175781 93.390625 58.203125 95.164062 C 55.25 96.972656 52.53125 99.160156 50.132812 101.65625 C 45.296875 106.660156 42.160156 113.097656 40.410156 119.816406 L 40.15625 119.753906 C 41.847656 112.984375 44.945312 106.449219 49.789062 101.332031 C 52.195312 98.777344 54.925781 96.535156 57.902344 94.675781 C 60.894531 92.84375 64.09375 91.359375 67.390625 90.179688 C 70.6875 88.992188 74.101562 88.136719 77.546875 87.53125 C 80.996094 86.917969 84.484375 86.539062 87.980469 86.359375 C 91.472656 86.179688 94.976562 86.199219 98.472656 86.386719 C 101.96875 86.585938 105.445312 86.914062 108.921875 87.523438 L 108.710938 88.605469 " fill-opacity="1" fill-rule="nonzero"/><path fill="#84a07f" d="M 53.140625 101.679688 C 51.453125 104.109375 42.613281 116.984375 38.507812 125.558594 C 38.136719 126.332031 36.96875 125.941406 37.144531 125.101562 C 38.621094 118.003906 42.390625 107.976562 49.261719 98.917969 C 49.460938 98.652344 49.828125 98.550781 50.132812 98.6875 C 51.816406 99.441406 52.699219 100.308594 53.113281 100.824219 C 53.316406 101.074219 53.324219 101.414062 53.140625 101.679688 " fill-opacity="1" fill-rule="nonzero"/><path fill="#84a07f" d="M 108.882812 86.644531 C 110.050781 81.011719 111.753906 75.570312 113.726562 70.214844 C 115.722656 64.875 118.046875 59.652344 120.710938 54.613281 C 123.375 49.570312 126.382812 44.707031 129.746094 40.101562 C 130.609375 38.96875 131.433594 37.804688 132.335938 36.699219 L 135.054688 33.398438 L 137.9375 30.238281 C 138.886719 29.171875 139.953125 28.214844 140.953125 27.203125 C 145.070312 23.261719 149.480469 19.609375 154.28125 16.527344 C 155.449219 15.710938 156.71875 15.050781 157.933594 14.300781 L 159.773438 13.214844 L 161.679688 12.25 C 162.960938 11.625 164.207031 10.933594 165.515625 10.367188 L 169.453125 8.707031 C 174.773438 6.695312 180.242188 5 185.859375 4.058594 C 188.640625 3.445312 191.480469 3.195312 194.300781 2.851562 C 195.710938 2.640625 197.136719 2.636719 198.554688 2.554688 L 202.8125 2.339844 L 202.828125 2.976562 L 198.59375 3.207031 C 197.183594 3.296875 195.765625 3.308594 194.371094 3.523438 C 191.566406 3.878906 188.75 4.140625 185.988281 4.761719 C 180.421875 5.71875 175.007812 7.429688 169.746094 9.445312 L 165.851562 11.105469 C 164.558594 11.671875 163.328125 12.363281 162.0625 12.988281 L 160.179688 13.953125 L 158.363281 15.039062 C 157.164062 15.78125 155.910156 16.441406 154.757812 17.253906 C 150.019531 20.328125 145.671875 23.96875 141.613281 27.886719 C 140.625 28.894531 139.578125 29.84375 138.640625 30.898438 L 135.800781 34.042969 L 133.121094 37.324219 C 132.238281 38.421875 131.425781 39.585938 130.574219 40.710938 C 127.265625 45.285156 124.308594 50.117188 121.691406 55.125 C 119.070312 60.136719 116.792969 65.320312 114.835938 70.625 C 112.90625 75.929688 111.238281 81.375 110.121094 86.871094 L 108.882812 86.644531 " fill-opacity="1" fill-rule="nonzero"/><path fill="#84a07f" d="M 108.125 88.03125 C 111.859375 85.964844 115.679688 84.199219 119.570312 82.542969 C 123.457031 80.894531 127.417969 79.417969 131.429688 78.105469 C 139.460938 75.511719 147.730469 73.597656 156.128906 72.695312 C 160.332031 72.269531 164.554688 72.09375 168.78125 72.210938 C 173.003906 72.386719 177.207031 72.878906 181.347656 73.71875 C 185.488281 74.589844 189.515625 75.914062 193.40625 77.554688 C 197.285156 79.234375 200.925781 81.40625 204.386719 83.816406 L 204.125 84.183594 C 200.660156 81.832031 197.03125 79.71875 193.171875 78.101562 C 189.300781 76.519531 185.300781 75.257812 181.199219 74.445312 C 177.097656 73.664062 172.929688 73.222656 168.753906 73.097656 C 164.574219 73.027344 160.394531 73.25 156.242188 73.71875 C 147.941406 74.707031 139.769531 76.695312 131.84375 79.363281 C 127.882812 80.707031 123.976562 82.207031 120.148438 83.886719 C 116.324219 85.566406 112.527344 87.382812 108.929688 89.425781 L 108.125 88.03125 " fill-opacity="1" fill-rule="nonzero"/><path fill="#84a07f" d="M 177.449219 8.40625 C 180.316406 7.699219 195.476562 4.027344 204.9375 3.25 C 205.789062 3.179688 205.839844 1.945312 204.996094 1.8125 C 197.851562 0.652344 187.160156 0.597656 176.261719 3.789062 C 175.941406 3.878906 175.714844 4.1875 175.734375 4.523438 C 175.835938 6.367188 176.324219 7.503906 176.65625 8.078125 C 176.820312 8.351562 177.136719 8.480469 177.449219 8.40625 " fill-opacity="1" fill-rule="nonzero"/><path fill="#84a07f" d="M 178.59375 76.132812 C 182.863281 77.207031 195.953125 79.800781 204.320312 84.835938 C 205.28125 85.417969 206.308594 84.152344 205.546875 83.328125 C 199.945312 77.289062 191.476562 74.539062 179.875 71.53125 C 179.050781 71.320312 178.175781 71.746094 177.851562 72.53125 C 177.589844 73.15625 177.433594 73.703125 177.34375 74.164062 C 177.171875 75.050781 177.714844 75.914062 178.59375 76.132812 " fill-opacity="1" fill-rule="nonzero"/><g clip-path="url(#99b687b739)"><path fill="#b6d755" d="M 224.761719 175.53125 C 224.40625 174.847656 226.207031 174.511719 228.039062 173.679688 C 222.179688 170.921875 216.292969 168.886719 210.464844 167.425781 C 208.480469 167.53125 206.554688 167.554688 204.523438 166.917969 C 205.085938 167.097656 205.410156 166.8125 205.644531 166.355469 C 197.246094 164.703125 189.011719 164.199219 181.164062 164.488281 C 179.878906 165.984375 178.410156 167.136719 176.359375 167.175781 C 176.441406 166.386719 176.460938 165.574219 176.453125 164.757812 C 144.691406 167.203125 120.484375 181.769531 120.484375 181.769531 C 177.683594 166.207031 196.328125 168.742188 228.4375 181.789062 C 226.695312 179.941406 225.171875 178.03125 224.761719 175.53125 " fill-opacity="1" fill-rule="nonzero"/></g><path fill="#b6d755" d="M 193.007812 136.195312 C 193.542969 134.484375 195.160156 134.28125 196.292969 133.640625 C 189.550781 133.613281 180.863281 134.214844 171.691406 136.457031 C 170.402344 138.8125 168.519531 138.78125 166.355469 137.941406 C 148.957031 143.402344 130.824219 155.332031 121.445312 180.574219 C 147.53125 152.761719 153.679688 142.445312 195.816406 136.320312 C 194.917969 136.226562 193.988281 136.175781 193.007812 136.195312 " fill-opacity="1" fill-rule="nonzero"/><path fill="#b6d755" d="M 221.761719 211.488281 C 222.824219 211.820312 224.191406 212.25 225.511719 212.660156 C 220.929688 208.609375 215.773438 205.101562 210.269531 202.046875 C 209.144531 201.757812 208.054688 201.382812 207.011719 200.859375 C 206.496094 200.699219 207.148438 200.898438 207.917969 200.777344 C 200.167969 196.722656 191.8125 193.535156 183.445312 191.03125 C 181.199219 191.125 179.367188 191.226562 177.128906 190.53125 C 176.683594 189.6875 177.898438 189.851562 178.445312 189.613281 C 148.699219 181.640625 120.328125 181.851562 120.328125 181.851562 C 143.730469 184.128906 168.609375 190.316406 190.566406 198.917969 C 190.679688 198.558594 190.789062 198.199219 190.898438 197.84375 C 192.226562 198.648438 193.363281 199.554688 194.464844 200.484375 C 205.191406 204.894531 215.128906 209.882812 223.75 215.261719 C 223.496094 213.851562 223.175781 212.507812 221.761719 211.488281 " fill-opacity="1" fill-rule="nonzero"/><path fill="#b6d755" d="M 125.261719 141.1875 C 125.652344 139.9375 126.054688 138.699219 127.019531 137.628906 C 126.628906 132.421875 125.730469 127.0625 124.09375 121.730469 C 123.515625 121.855469 122.894531 122.011719 122.160156 122.132812 C 122.460938 121.160156 122.839844 119.933594 123.078125 118.679688 C 119.679688 109.289062 113.886719 100.101562 104.527344 92.144531 C 105.515625 93.984375 106.398438 95.878906 107.738281 97.53125 C 105.949219 96.976562 104.300781 96.464844 102.644531 96.070312 C 108.074219 107.777344 112.753906 119.457031 116.039062 131.300781 C 117.394531 132.496094 118.390625 133.910156 119.089844 135.242188 C 119.238281 136.148438 118.539062 136.792969 117.585938 137.355469 C 120.945312 151.695312 122.105469 166.332031 119.90625 181.613281 C 119.90625 181.613281 127.75 163.5625 127.21875 141.796875 C 126.636719 141.617188 126.03125 141.429688 125.261719 141.1875 " fill-opacity="1" fill-rule="nonzero"/><path fill="#b6d755" d="M 83.730469 151.617188 C 82.753906 150.449219 81.789062 149.265625 81.355469 147.644531 C 76.007812 144.734375 70.1875 142.230469 63.933594 140.46875 C 63.691406 141.117188 63.445312 141.824219 63.101562 142.625 C 62.339844 141.714844 61.375 140.570312 60.300781 139.539062 C 48.953125 136.941406 36.292969 136.835938 22.578125 141.011719 C 25.007812 141.203125 27.421875 141.527344 29.890625 141.261719 C 28.210938 142.667969 26.667969 143.96875 25.234375 145.34375 C 40.136719 147.40625 54.535156 150.183594 68.214844 154.441406 C 70.246094 153.859375 72.257812 153.777344 74.003906 153.929688 C 74.984375 154.359375 75.175781 155.449219 75.125 156.742188 C 91.296875 162.503906 106.367188 170.613281 119.945312 182.433594 C 119.945312 182.433594 107.222656 163.3125 85.566406 150.078125 C 85.019531 150.535156 84.453125 151.011719 83.730469 151.617188 " fill-opacity="1" fill-rule="nonzero"/><path fill="#b6d755" d="M 119.363281 179.960938 C 119.363281 179.960938 120.1875 168.96875 116.410156 155.351562 C 114.773438 154.183594 114.460938 152.953125 115.039062 150.902344 C 113.519531 146.46875 111.488281 141.859375 108.773438 137.339844 C 108.398438 137.757812 108.027344 138.175781 107.652344 138.589844 C 106.96875 136.855469 107.304688 135.070312 106.46875 133.789062 L 106.429688 133.730469 C 106.3125 133.558594 106.175781 133.394531 106.007812 133.246094 C 106.175781 133.394531 106.3125 133.558594 106.429688 133.730469 C 102.601562 128.226562 97.667969 122.964844 91.289062 118.4375 C 92.003906 119.40625 92.691406 120.449219 93.179688 121.707031 C 90.90625 120.871094 88.578125 119.140625 86.140625 117.925781 C 91.632812 124.5625 96.308594 130.832031 100.246094 136.671875 C 101.707031 137.605469 102.386719 139.9375 104.378906 140.804688 C 103.976562 140.964844 103.574219 141.054688 103.160156 141.117188 C 114.761719 159.355469 118.984375 172.941406 119.363281 179.960938 " fill-opacity="1" fill-rule="nonzero"/><path fill="#b6d755" d="M 102.660156 248.847656 C 95.398438 231.613281 92.769531 222.769531 99.835938 209.265625 C 99.773438 208.089844 99.824219 206.90625 100.191406 205.71875 C 99.945312 206.507812 100.375 206.949219 100.890625 207.339844 C 104.78125 200.53125 111.023438 192.480469 120.214844 181.664062 C 120.214844 181.664062 93.695312 195.125 89.792969 218.582031 C 90.53125 218.445312 91.371094 218.464844 92.265625 218.316406 C 90.75 221.097656 90.382812 224.238281 89.433594 227.195312 C 89.941406 233.621094 92.207031 240.644531 97.011719 248.214844 C 97.230469 247.519531 97.445312 246.824219 97.664062 246.128906 C 98.921875 248.53125 100.179688 250.933594 101.441406 253.335938 C 101.613281 251.675781 102.074219 250.226562 102.660156 248.847656 " fill-opacity="1" fill-rule="nonzero"/><path fill="#b6d755" d="M 181.613281 236.910156 C 180.433594 230.585938 177.695312 224.769531 174.007812 219.472656 C 172.671875 218.90625 171.785156 218.039062 171.949219 216.6875 C 169.449219 213.503906 166.609375 210.53125 163.59375 207.765625 C 162.214844 207.476562 160.988281 207.125 160.175781 206.339844 C 160.101562 205.898438 160.15625 205.382812 160.277344 204.859375 C 142.332031 189.875 119.921875 181.859375 119.921875 181.859375 C 131.25 188.59375 139.902344 193.851562 146.804688 198.570312 C 148.914062 198.496094 150.042969 199.632812 150.6875 201.308594 C 165.417969 212.023438 171.398438 220.742188 180.6875 239.6875 C 180.847656 238.71875 180.914062 237.75 180.769531 236.886719 C 181.113281 236.707031 181.378906 236.753906 181.613281 236.910156 " fill-opacity="1" fill-rule="nonzero"/><path fill="#b6d755" d="M 152.839844 126.679688 C 153.003906 126.152344 153.191406 125.550781 153.386719 124.921875 C 147.886719 127.855469 143.472656 131.738281 139.910156 135.996094 C 139.816406 138.097656 138.699219 139.355469 137.015625 139.792969 C 128.007812 152.78125 125.898438 167.675781 125.492188 170.492188 C 136.148438 146.515625 142.765625 137.183594 155.417969 126.910156 C 154.546875 126.863281 153.6875 126.796875 152.839844 126.679688 " fill-opacity="1" fill-rule="nonzero"/><path fill="#b6d755" d="M 81.523438 168.628906 C 81.753906 169.074219 81.984375 169.519531 82.21875 169.960938 C 80.101562 170.585938 77.707031 169.484375 75.382812 168.859375 C 70.523438 169.394531 65.742188 170.816406 61.332031 173.492188 C 61.5 173.546875 61.699219 173.609375 62 173.703125 C 60.539062 174.472656 60.097656 175.558594 59.84375 176.707031 C 62.230469 176.046875 64.421875 175.453125 66.464844 174.921875 C 66.597656 173.976562 66.890625 172.90625 68.339844 172.667969 C 69.101562 172.90625 69.03125 173.578125 68.820312 174.328125 C 87.21875 169.800781 93.082031 171.535156 119.824219 182.175781 C 122.398438 183.203125 102.300781 169.253906 81.523438 168.628906 " fill-opacity="1" fill-rule="nonzero"/><path fill="#b6d755" d="M 60.773438 203.464844 L 60.71875 203.328125 C 60.421875 203.308594 60.136719 203.269531 59.859375 203.179688 L 60.773438 203.464844 " fill-opacity="1" fill-rule="nonzero"/><path fill="#b6d755" d="M 87.460938 186.011719 C 87.828125 186.355469 88 186.851562 87.722656 187.757812 C 86.265625 186.710938 84.3125 187.261719 82.453125 187.523438 C 79.730469 188.429688 77.058594 189.472656 74.503906 190.667969 C 75.253906 190.902344 75.972656 191.125 76.585938 191.316406 C 74.992188 193.941406 72.054688 193.121094 69.695312 193.210938 C 66.261719 195.253906 63.210938 197.65625 60.777344 200.457031 C 62.40625 201.015625 60.335938 202.183594 60.71875 203.328125 C 61.597656 203.382812 62.542969 203.214844 63.433594 203.21875 C 84.300781 190.027344 116.980469 182.441406 118.917969 182.125 C 122.8125 181.488281 105.199219 181.167969 87.460938 186.011719 " fill-opacity="1" fill-rule="nonzero"/><path fill="#b6d755" d="M 147.28125 214.414062 C 146.839844 214.246094 146.359375 214.089844 145.785156 213.910156 C 145.980469 213.296875 146.171875 212.675781 146.363281 212.058594 C 144.738281 208.191406 142.660156 204.613281 140.386719 201.355469 C 138.058594 199.316406 136.300781 196.6875 133.601562 195.039062 C 134.429688 195.296875 135.257812 195.554688 136.085938 195.8125 C 127.6875 186.007812 118.773438 180.628906 119.925781 182.035156 C 137.621094 203.648438 141.675781 209.667969 144.75 239.519531 C 145.390625 238.414062 145.300781 236.597656 146.839844 236.347656 C 146.867188 237.785156 147.375 239.144531 148.03125 240.429688 C 150.984375 231.011719 150.089844 222.203125 147.28125 214.414062 " fill-opacity="1" fill-rule="nonzero"/><path fill="#b6d755" d="M 133.738281 217.1875 C 134.085938 217.296875 134.566406 217.445312 135.074219 217.605469 C 133.792969 200.660156 119.648438 182.179688 119.648438 182.179688 C 130.574219 207.414062 132.257812 216.429688 131.21875 231.738281 C 131.71875 230.125 132.296875 228.273438 132.71875 226.917969 C 132.226562 228.503906 131.953125 229.398438 133.066406 229.984375 C 134.46875 227.042969 135.101562 223.847656 135.164062 220.546875 C 134.140625 219.714844 135.371094 217.695312 133.738281 217.1875 " fill-opacity="1" fill-rule="nonzero"/><path fill="#b6d755" d="M 165.148438 178.945312 C 164.652344 178.707031 164.144531 178.488281 163.605469 178.292969 C 161.027344 177.613281 159.542969 179.011719 156.890625 178.1875 C 157.457031 177.886719 157.816406 177.519531 158.101562 177.027344 C 142.785156 175.03125 119.714844 182.007812 119.714844 182.007812 C 134.980469 178.886719 144.058594 178.132812 166.015625 180.367188 C 165.597656 179.855469 165.144531 179.394531 165.148438 178.945312 " fill-opacity="1" fill-rule="nonzero"/><path fill="#b6d755" d="M 117.449219 176.246094 C 117.449219 176.246094 113.917969 158.625 95.375 151.644531 C 108.207031 161.265625 112.429688 165.882812 117.449219 176.246094 " fill-opacity="1" fill-rule="nonzero"/><path fill="#b6d755" d="M 118.925781 203.523438 C 119.132812 203.414062 119.335938 203.425781 119.53125 203.515625 C 123.128906 193.71875 119.660156 181.628906 119.660156 181.628906 C 121.214844 196.054688 117.949219 201.0625 114.902344 210.640625 C 116.207031 209.4375 117.253906 208.078125 118.097656 206.617188 C 118.117188 205.507812 118.273438 204.433594 118.925781 203.523438 " fill-opacity="1" fill-rule="nonzero"/><path fill="#b6d755" d="M 119.914062 181.894531 C 123.339844 181.699219 126.832031 181.773438 130.285156 181.984375 C 133.742188 182.199219 137.195312 182.585938 140.609375 183.164062 C 144.027344 183.746094 147.414062 184.515625 150.730469 185.515625 C 154.050781 186.511719 157.304688 187.738281 160.40625 189.289062 C 163.503906 190.824219 166.46875 192.644531 169.195312 194.78125 C 171.894531 196.945312 174.320312 199.457031 176.382812 202.238281 C 180.550781 207.8125 182.855469 214.597656 183.742188 221.484375 L 183.996094 221.453125 C 183.175781 214.523438 180.925781 207.648438 176.765625 201.960938 C 174.703125 199.125 172.269531 196.554688 169.554688 194.328125 C 166.8125 192.136719 163.828125 190.261719 160.707031 188.675781 C 157.585938 187.078125 154.308594 185.800781 150.964844 184.761719 C 147.621094 183.71875 144.210938 182.90625 140.765625 182.285156 C 137.320312 181.664062 133.839844 181.238281 130.351562 180.984375 C 126.855469 180.738281 123.367188 180.625 119.839844 180.792969 L 119.914062 181.894531 " fill-opacity="1" fill-rule="nonzero"/><path fill="#b6d755" d="M 173.398438 201.882812 C 174.761719 204.503906 181.917969 218.394531 184.910156 227.417969 C 185.175781 228.230469 186.382812 227.992188 186.316406 227.140625 C 185.746094 219.90625 183.269531 209.488281 177.59375 199.632812 C 177.425781 199.347656 177.074219 199.199219 176.753906 199.292969 C 174.988281 199.832031 174.003906 200.578125 173.53125 201.035156 C 173.300781 201.257812 173.25 201.597656 173.398438 201.882812 " fill-opacity="1" fill-rule="nonzero"/><path fill="#b6d755" d="M 119.992188 179.925781 C 119.539062 174.1875 118.535156 168.578125 117.253906 163.015625 C 115.941406 157.464844 114.296875 151.992188 112.289062 146.652344 C 110.277344 141.316406 107.90625 136.113281 105.152344 131.117188 C 104.4375 129.886719 103.765625 128.625 103.011719 127.414062 L 100.726562 123.796875 L 98.265625 120.296875 C 97.460938 119.121094 96.523438 118.039062 95.660156 116.90625 C 92.070312 112.480469 88.152344 108.296875 83.777344 104.632812 C 82.71875 103.675781 81.546875 102.859375 80.433594 101.96875 L 78.746094 100.652344 L 76.976562 99.457031 C 75.785156 98.675781 74.632812 97.828125 73.410156 97.101562 L 69.710938 94.960938 C 64.683594 92.292969 59.476562 89.917969 54.023438 88.273438 C 51.339844 87.316406 48.554688 86.710938 45.796875 86.011719 C 44.425781 85.625 43.015625 85.4375 41.617188 85.175781 L 37.417969 84.429688 L 37.324219 85.058594 L 41.496094 85.820312 C 42.882812 86.089844 44.289062 86.277344 45.648438 86.671875 C 48.382812 87.375 51.144531 87.988281 53.804688 88.957031 C 59.207031 90.609375 64.359375 92.988281 69.328125 95.652344 L 72.984375 97.792969 C 74.191406 98.515625 75.332031 99.363281 76.503906 100.140625 L 78.253906 101.335938 L 79.917969 102.640625 C 81.011719 103.53125 82.171875 104.339844 83.214844 105.296875 C 87.527344 108.941406 91.386719 113.101562 94.917969 117.5 C 95.769531 118.625 96.691406 119.699219 97.484375 120.867188 L 99.902344 124.34375 L 102.152344 127.9375 C 102.890625 129.136719 103.546875 130.394531 104.25 131.617188 C 106.960938 136.578125 109.285156 141.742188 111.253906 147.039062 C 113.21875 152.339844 114.828125 157.773438 116.101562 163.285156 C 117.347656 168.785156 118.320312 174.398438 118.734375 179.992188 L 119.992188 179.925781 " fill-opacity="1" fill-rule="nonzero"/><path fill="#b6d755" d="M 120.570312 181.398438 C 117.121094 178.875 113.554688 176.640625 109.902344 174.507812 C 106.253906 172.378906 102.515625 170.414062 98.695312 168.609375 C 91.058594 165.015625 83.09375 162.078125 74.875 160.121094 C 70.761719 159.164062 66.589844 158.460938 62.386719 158.042969 C 58.175781 157.683594 53.941406 157.640625 49.730469 157.949219 C 45.515625 158.289062 41.351562 159.09375 37.285156 160.230469 C 33.226562 161.40625 29.34375 163.101562 25.605469 165.054688 L 25.820312 165.453125 C 29.550781 163.554688 33.417969 161.921875 37.449219 160.800781 C 41.488281 159.722656 45.613281 158.976562 49.785156 158.6875 C 53.957031 158.433594 58.144531 158.519531 62.300781 158.925781 C 66.457031 159.382812 70.574219 160.132812 74.632812 161.121094 C 82.75 163.152344 90.601562 166.15625 98.128906 169.796875 C 101.886719 171.632812 105.574219 173.617188 109.164062 175.769531 C 112.742188 177.917969 116.28125 180.195312 119.59375 182.679688 L 120.570312 181.398438 " fill-opacity="1" fill-rule="nonzero"/><path fill="#b6d755" d="M 61.816406 93.648438 C 59.0625 92.582031 44.484375 87.023438 35.199219 85.0625 C 34.363281 84.886719 34.464844 83.65625 35.320312 83.625 C 42.550781 83.382812 53.167969 84.675781 63.578125 89.21875 C 63.882812 89.351562 64.070312 89.6875 64.007812 90.011719 C 63.675781 91.832031 63.042969 92.898438 62.644531 93.421875 C 62.449219 93.675781 62.117188 93.765625 61.816406 93.648438 " fill-opacity="1" fill-rule="nonzero"/><path fill="#b6d755" d="M 52.160156 160.695312 C 47.785156 161.21875 34.476562 162.136719 25.539062 166.078125 C 24.515625 166.527344 23.65625 165.144531 24.515625 164.425781 C 30.832031 159.140625 39.578125 157.484375 51.46875 155.964844 C 52.3125 155.859375 53.121094 156.386719 53.347656 157.210938 C 53.53125 157.867188 53.613281 158.429688 53.644531 158.894531 C 53.707031 159.796875 53.054688 160.585938 52.160156 160.695312 " fill-opacity="1" fill-rule="nonzero"/></svg>