<svg xmlns="http://www.w3.org/2000/svg" xmlns:xlink="http://www.w3.org/1999/xlink" width="307" zoomAndPan="magnify" viewBox="0 0 230.25 162.75" height="217" preserveAspectRatio="xMidYMid meet" version="1.0"><defs><clipPath id="5700b6476c"><path d="M 0 0.140625 L 14 0.140625 L 14 41 L 0 41 Z M 0 0.140625 " clip-rule="nonzero"/></clipPath><clipPath id="31f099de50"><path d="M 0 0.140625 L 15 0.140625 L 15 41 L 0 41 Z M 0 0.140625 " clip-rule="nonzero"/></clipPath><clipPath id="0124ad96f7"><path d="M 215 0.140625 L 228.753906 0.140625 L 228.753906 41 L 215 41 Z M 215 0.140625 " clip-rule="nonzero"/></clipPath></defs><path fill="#161616" d="M 219.453125 39.996094 C 219.484375 39.769531 219.667969 39.589844 219.882812 39.59375 C 220.097656 39.597656 220.28125 39.785156 220.28125 40.011719 C 219.667969 70.800781 217.488281 109.65625 189.082031 151.167969 C 188.960938 151.355469 188.683594 151.40625 188.5 151.277344 C 188.316406 151.148438 188.285156 150.890625 188.40625 150.703125 C 216.691406 109.359375 218.839844 70.660156 219.453125 39.996094 Z M 219.453125 39.996094 " fill-opacity="1" fill-rule="evenodd"/><g clip-path="url(#5700b6476c)"><path fill="#d8cdbf" d="M 13.59375 0.554688 L 0.445312 0.554688 L 0.445312 40.003906 L 9.589844 40.003906 L 9.589844 26.851562 L 13.59375 26.851562 Z M 13.59375 0.554688 " fill-opacity="1" fill-rule="evenodd"/></g><g clip-path="url(#31f099de50)"><path fill="#161616" d="M 14.003906 0.554688 L 14.003906 26.851562 C 14.003906 27.082031 13.816406 27.265625 13.59375 27.265625 L 10 27.265625 L 10 40.003906 C 10 40.230469 9.816406 40.414062 9.589844 40.414062 L 0.445312 40.414062 C 0.199219 40.414062 0.015625 40.230469 0.015625 40.003906 L 0.015625 0.554688 C 0.015625 0.328125 0.199219 0.140625 0.445312 0.140625 L 13.59375 0.140625 C 13.816406 0.140625 14.003906 0.328125 14.003906 0.554688 Z M 13.164062 0.964844 C 13.164062 0.964844 0.851562 0.964844 0.851562 0.964844 L 0.851562 39.589844 L 9.183594 39.589844 L 9.183594 26.851562 C 9.183594 26.625 9.367188 26.441406 9.589844 26.441406 C 9.589844 26.441406 13.164062 26.441406 13.164062 26.441406 Z M 13.164062 0.964844 " fill-opacity="1" fill-rule="evenodd"/></g><g clip-path="url(#0124ad96f7)"><path fill="#d8cdbf" d="M 215.410156 0.554688 L 228.558594 0.554688 L 228.558594 40.003906 L 219.414062 40.003906 L 219.414062 26.851562 L 215.410156 26.851562 Z M 215.410156 0.554688 " fill-opacity="1" fill-rule="evenodd"/><path fill="#161616" d="M 215.410156 0.140625 L 228.558594 0.140625 C 228.804688 0.140625 228.988281 0.328125 228.988281 0.554688 L 228.988281 40.003906 C 228.988281 40.230469 228.804688 40.414062 228.558594 40.414062 L 219.414062 40.414062 C 219.1875 40.414062 219.003906 40.230469 219.003906 40.003906 L 219.003906 27.265625 L 215.410156 27.265625 C 215.1875 27.265625 215.003906 27.082031 215.003906 26.851562 L 215.003906 0.554688 C 215.003906 0.328125 215.1875 0.140625 215.410156 0.140625 Z M 215.839844 0.964844 L 215.839844 26.441406 L 219.414062 26.441406 C 219.636719 26.441406 219.820312 26.625 219.820312 26.851562 L 219.820312 39.589844 L 228.152344 39.589844 C 228.152344 35.664062 228.152344 4.890625 228.152344 0.964844 Z M 215.839844 0.964844 " fill-opacity="1" fill-rule="evenodd"/></g><path fill="#d8cdbf" d="M 17.496094 29.257812 L 189.15625 150.914062 L 181.554688 161.644531 L 9.894531 39.988281 Z M 17.496094 29.257812 " fill-opacity="1" fill-rule="evenodd"/><path fill="#161616" d="M 189.410156 151.097656 L 181.808594 161.824219 C 181.675781 162.011719 181.304688 161.972656 181.304688 161.972656 L 9.65625 40.324219 C 9.390625 40.136719 9.230469 39.796875 9.359375 39.609375 L 16.964844 28.882812 C 17.097656 28.695312 17.46875 28.734375 17.734375 28.925781 L 189.382812 150.570312 C 189.382812 150.570312 189.542969 150.910156 189.410156 151.097656 Z M 188.375 150.863281 C 188.375 150.863281 17.527344 29.785156 17.527344 29.785156 C 17.527344 29.785156 10.398438 39.839844 10.398438 39.839844 C 10.398438 39.839844 181.246094 160.921875 181.246094 160.921875 Z M 188.375 150.863281 " fill-opacity="1" fill-rule="evenodd"/></svg>