<svg xmlns="http://www.w3.org/2000/svg" xmlns:xlink="http://www.w3.org/1999/xlink" width="307" zoomAndPan="magnify" viewBox="0 0 230.25 178.499993" height="238" preserveAspectRatio="xMidYMid meet" version="1.0"><defs><clipPath id="afbced238a"><path d="M 1 42 L 228.753906 42 L 228.753906 177.214844 L 1 177.214844 Z M 1 42 " clip-rule="nonzero"/></clipPath><clipPath id="122302b234"><path d="M 0 0.0390625 L 228.753906 0.0390625 L 228.753906 177.214844 L 0 177.214844 Z M 0 0.0390625 " clip-rule="nonzero"/></clipPath></defs><g clip-path="url(#afbced238a)"><path fill="#d8cdbf" d="M 172.6875 42.371094 L 172.6875 53.695312 L 157.585938 53.695312 L 157.585938 65.421875 L 142.484375 65.421875 L 142.484375 76.746094 L 127.382812 76.746094 L 127.382812 88.46875 L 112.277344 88.46875 L 112.277344 99.792969 L 97.175781 99.792969 L 97.175781 113.933594 L 32.644531 113.933594 L 32.644531 113.386719 L 1.144531 113.386719 L 1.144531 177.355469 L 97.589844 177.355469 L 97.589844 114.347656 L 110.859375 114.347656 L 187.5625 55.277344 L 229 55.253906 L 229 42.382812 Z M 172.6875 42.371094 " fill-opacity="1" fill-rule="nonzero"/></g><g clip-path="url(#122302b234)"><path fill="#ac6d3b" d="M 172.894531 40.675781 L 171.578125 40.675781 C 171.167969 40.675781 170.84375 41.007812 170.84375 41.410156 L 170.84375 41.628906 C 170.84375 42.039062 171.175781 42.359375 171.578125 42.359375 L 229 42.359375 L 229 40.664062 L 181.859375 40.664062 L 181.859375 36.304688 L 180.222656 36.304688 C 180.488281 35.835938 180.648438 35.308594 180.648438 34.722656 C 180.648438 33.671875 180.132812 32.730469 179.351562 32.136719 C 179.972656 29.113281 180.359375 24.726562 180.359375 19.816406 C 180.359375 15.453125 180.050781 11.503906 179.546875 8.546875 C 180.210938 7.953125 180.648438 7.09375 180.648438 6.121094 C 180.648438 5.546875 180.488281 5.011719 180.222656 4.542969 L 181.859375 4.542969 L 181.859375 0.214844 L 172.894531 0.214844 L 172.894531 3.546875 L 95.296875 73.390625 L 92.195312 73.390625 L 92.195312 77.753906 L 93.832031 77.753906 C 93.570312 78.222656 93.410156 78.75 93.410156 79.332031 C 93.410156 80.292969 93.832031 81.164062 94.507812 81.761719 C 94.003906 84.703125 93.695312 88.664062 93.695312 93.027344 C 93.695312 97.402344 94.003906 101.363281 94.507812 104.316406 L 94.507812 105.496094 C 93.84375 106.089844 93.410156 106.960938 93.410156 107.921875 C 93.410156 108.496094 93.570312 109.035156 93.832031 109.503906 L 92.195312 109.503906 L 92.195312 113.386719 L 9.320312 113.386719 L 9.320312 109.023438 L 7.695312 109.023438 C 7.957031 108.554688 8.117188 108.027344 8.117188 107.441406 C 8.117188 106.390625 7.601562 105.449219 6.824219 104.855469 C 7.441406 101.832031 7.832031 97.445312 7.832031 92.535156 C 7.832031 88.171875 7.523438 84.222656 7.019531 81.269531 C 7.683594 80.671875 8.117188 79.8125 8.117188 78.839844 C 8.117188 78.269531 7.957031 77.730469 7.695312 77.261719 L 9.332031 77.261719 L 9.332031 72.898438 L 0.355469 72.898438 L 0.355469 77.261719 L 1.992188 77.261719 C 1.730469 77.730469 1.570312 78.257812 1.570312 78.839844 C 1.570312 79.800781 1.992188 80.671875 2.667969 81.269531 C 2.164062 84.210938 1.855469 88.171875 1.855469 92.535156 C 1.855469 96.910156 2.164062 100.871094 2.667969 103.824219 L 2.667969 105.003906 C 2.003906 105.597656 1.570312 106.46875 1.570312 107.429688 C 1.570312 108.003906 1.730469 108.542969 1.992188 109.011719 L 0.355469 109.011719 L 0.355469 113.375 L 0.414062 113.375 C 0.183594 113.386719 0 113.566406 0 113.796875 C 0 114.027344 0.183594 114.210938 0.414062 114.210938 L 2.667969 114.210938 L 2.667969 120.894531 L 0.414062 120.894531 C 0.183594 120.894531 0 121.078125 0 121.308594 C 0 121.539062 0.183594 121.71875 0.414062 121.71875 L 2.667969 121.71875 L 2.667969 130.34375 L 0.414062 130.34375 C 0.183594 130.34375 0 130.527344 0 130.753906 C 0 130.984375 0.183594 131.167969 0.414062 131.167969 L 2.667969 131.167969 L 2.667969 136.878906 L 0.355469 136.878906 L 0.355469 140.519531 C 0.160156 140.566406 0 140.726562 0 140.933594 C 0 141.164062 0.183594 141.347656 0.414062 141.347656 L 1.933594 141.347656 C 1.707031 141.792969 1.570312 142.285156 1.570312 142.824219 C 1.570312 143.785156 1.992188 144.65625 2.667969 145.25 C 2.359375 147.058594 2.117188 149.234375 1.992188 151.671875 L 0.414062 151.671875 C 0.183594 151.671875 0 151.855469 0 152.085938 C 0 152.316406 0.183594 152.5 0.414062 152.5 L 1.945312 152.5 C 1.890625 153.792969 1.855469 155.132812 1.855469 156.515625 C 1.855469 159.230469 1.980469 161.773438 2.1875 164.027344 L 0.414062 164.027344 C 0.183594 164.027344 0 164.210938 0 164.441406 C 0 164.667969 0.183594 164.851562 0.414062 164.851562 L 2.265625 164.851562 C 2.425781 166.339844 2.621094 167.679688 2.863281 168.824219 C 2.082031 169.421875 1.570312 170.359375 1.570312 171.414062 C 1.570312 171.984375 1.730469 172.523438 1.992188 172.992188 L 0.355469 172.992188 L 0.355469 177.355469 L 9.320312 177.355469 L 9.320312 172.992188 L 7.695312 172.992188 C 7.957031 172.523438 8.117188 171.996094 8.117188 171.414062 C 8.117188 170.359375 7.601562 169.421875 6.824219 168.824219 C 7.054688 167.679688 7.257812 166.339844 7.417969 164.851562 L 94.117188 164.851562 C 94.28125 166.339844 94.472656 167.679688 94.714844 168.824219 C 93.9375 169.421875 93.421875 170.359375 93.421875 171.414062 C 93.421875 171.984375 93.582031 172.523438 93.84375 172.992188 L 92.207031 172.992188 L 92.207031 177.355469 L 101.171875 177.355469 L 101.171875 172.992188 L 99.535156 172.992188 C 99.796875 172.523438 99.957031 171.996094 99.957031 171.414062 C 99.957031 170.359375 99.441406 169.421875 98.664062 168.824219 C 99.28125 165.804688 99.671875 161.417969 99.671875 156.503906 C 99.671875 152.144531 99.363281 148.191406 98.859375 145.238281 C 99.523438 144.644531 99.957031 143.785156 99.957031 142.8125 C 99.957031 142.238281 99.796875 141.699219 99.535156 141.230469 L 101.171875 141.230469 L 101.171875 136.867188 L 98.628906 136.867188 L 98.628906 131.109375 C 98.769531 131.039062 98.871094 130.902344 98.871094 130.730469 C 98.871094 130.558594 98.769531 130.421875 98.628906 130.355469 L 98.628906 121.652344 C 98.769531 121.582031 98.871094 121.445312 98.871094 121.273438 C 98.871094 121.101562 98.769531 120.964844 98.628906 120.894531 L 98.628906 114.128906 C 98.757812 114.070312 98.835938 113.957031 98.859375 113.820312 L 101.171875 113.820312 L 101.171875 109.457031 L 99.535156 109.457031 C 99.796875 108.988281 99.957031 108.460938 99.957031 107.878906 C 99.957031 106.824219 99.441406 105.886719 98.664062 105.289062 C 98.960938 103.824219 99.214844 102.027344 99.386719 100 L 112.4375 100 L 112.4375 98.304688 L 106.382812 98.304688 L 106.382812 68.957031 L 118.015625 58.480469 L 118.015625 86.957031 L 112.210938 86.957031 C 111.796875 86.957031 111.476562 87.289062 111.476562 87.691406 L 111.476562 87.910156 C 111.476562 88.320312 111.808594 88.640625 112.210938 88.640625 L 127.460938 88.640625 L 127.460938 86.945312 L 120.921875 86.945312 L 120.921875 55.871094 L 133.769531 44.308594 L 133.769531 75.097656 L 127.242188 75.097656 C 126.832031 75.097656 126.511719 75.429688 126.511719 75.828125 L 126.511719 76.046875 C 126.511719 76.457031 126.84375 76.777344 127.242188 76.777344 L 142.496094 76.777344 L 142.496094 75.097656 L 136.679688 75.097656 L 136.679688 41.695312 L 148.3125 31.21875 L 148.3125 63.945312 L 142.507812 63.945312 C 142.09375 63.945312 141.773438 64.277344 141.773438 64.675781 L 141.773438 64.894531 C 141.773438 65.304688 142.105469 65.628906 142.507812 65.628906 L 157.757812 65.628906 L 157.757812 63.933594 L 151.21875 63.933594 L 151.21875 28.609375 L 163.335938 17.695312 L 163.335938 52.070312 L 157.527344 52.070312 C 157.117188 52.070312 156.796875 52.402344 156.796875 52.804688 L 156.796875 53.019531 C 156.796875 53.433594 157.128906 53.753906 157.527344 53.753906 L 172.78125 53.753906 L 172.78125 52.058594 L 166.242188 52.058594 L 166.242188 15.074219 L 174.488281 7.644531 C 174.667969 8 174.910156 8.308594 175.195312 8.570312 C 174.691406 11.515625 174.382812 15.476562 174.382812 19.839844 C 174.382812 24.738281 174.773438 29.136719 175.390625 32.160156 C 174.613281 32.753906 174.097656 33.691406 174.097656 34.746094 C 174.097656 35.320312 174.257812 35.855469 174.519531 36.328125 L 172.894531 36.328125 Z M 6.789062 114.210938 L 94.507812 114.210938 L 94.507812 120.894531 L 6.789062 120.894531 Z M 6.789062 121.71875 L 94.507812 121.71875 L 94.507812 130.34375 L 6.789062 130.34375 Z M 7.019531 145.25 C 7.683594 144.65625 8.117188 143.796875 8.117188 142.824219 C 8.117188 142.285156 7.980469 141.792969 7.75 141.347656 L 93.777344 141.347656 C 93.546875 141.792969 93.410156 142.285156 93.410156 142.824219 C 93.410156 143.785156 93.832031 144.65625 94.507812 145.25 C 94.199219 147.058594 93.957031 149.234375 93.832031 151.671875 L 7.695312 151.671875 C 7.558594 149.234375 7.328125 147.058594 7.019531 145.25 Z M 7.5 164.027344 C 7.707031 161.773438 7.832031 159.21875 7.832031 156.515625 C 7.832031 155.132812 7.796875 153.792969 7.738281 152.5 L 93.785156 152.5 C 93.730469 153.792969 93.695312 155.132812 93.695312 156.515625 C 93.695312 159.230469 93.820312 161.773438 94.027344 164.027344 Z M 92.195312 136.890625 L 92.195312 140.519531 L 9.320312 140.519531 L 9.320312 136.890625 L 6.789062 136.890625 L 6.789062 131.179688 L 94.507812 131.179688 L 94.507812 136.890625 Z M 103.472656 98.351562 L 99.5 98.351562 C 99.605469 96.679688 99.660156 94.894531 99.660156 93.015625 C 99.660156 88.652344 99.351562 84.703125 98.847656 81.75 C 99.511719 81.152344 99.945312 80.292969 99.945312 79.320312 C 99.945312 78.75 99.785156 78.210938 99.523438 77.742188 L 101.160156 77.742188 L 101.160156 73.640625 L 103.472656 71.558594 Z M 103.472656 98.351562 " fill-opacity="1" fill-rule="nonzero"/></g></svg>