<svg xmlns="http://www.w3.org/2000/svg" xmlns:xlink="http://www.w3.org/1999/xlink" width="348" zoomAndPan="magnify" viewBox="0 0 261 231" height="308" preserveAspectRatio="xMidYMid meet" version="1.0"><defs><clipPath id="11d290ea52"><path d="M 7 201 L 252 201 L 252 230.25 L 7 230.25 Z M 7 201 " clip-rule="nonzero"/></clipPath><clipPath id="fa981b2a2a"><path d="M 0 0 L 260.25 0 L 260.25 230.25 L 0 230.25 Z M 0 0 " clip-rule="nonzero"/></clipPath></defs><path fill="#d8cdbf" d="M 76.308594 34.898438 L 182.785156 34.898438 L 182.785156 50.847656 L 76.308594 50.847656 Z M 76.308594 34.898438 " fill-opacity="1" fill-rule="nonzero"/><path fill="#d8cdbf" d="M 68.699219 50.757812 L 190.382812 50.757812 L 190.382812 66.042969 L 68.699219 66.042969 Z M 68.699219 50.757812 " fill-opacity="1" fill-rule="nonzero"/><path fill="#d8cdbf" d="M 61.101562 65.949219 L 197.992188 65.949219 L 197.992188 82.394531 L 61.101562 82.394531 Z M 61.101562 65.949219 " fill-opacity="1" fill-rule="nonzero"/><path fill="#d8cdbf" d="M 53.492188 82.292969 L 205.601562 82.292969 L 205.601562 99.976562 L 53.492188 99.976562 Z M 53.492188 82.292969 " fill-opacity="1" fill-rule="nonzero"/><path fill="#d8cdbf" d="M 45.878906 99.898438 L 213.199219 99.898438 L 213.199219 118.675781 L 45.878906 118.675781 Z M 45.878906 99.898438 " fill-opacity="1" fill-rule="nonzero"/><path fill="#d8cdbf" d="M 38.285156 118.582031 L 220.8125 118.582031 L 220.8125 138.234375 L 38.285156 138.234375 Z M 38.285156 118.582031 " fill-opacity="1" fill-rule="nonzero"/><path fill="#d8cdbf" d="M 30.671875 138.144531 L 228.40625 138.144531 L 228.40625 158.746094 L 30.671875 158.746094 Z M 30.671875 138.144531 " fill-opacity="1" fill-rule="nonzero"/><path fill="#d8cdbf" d="M 23.074219 158.652344 L 236.03125 158.652344 L 236.03125 180.101562 L 23.074219 180.101562 Z M 23.074219 158.652344 " fill-opacity="1" fill-rule="nonzero"/><path fill="#d8cdbf" d="M 15.464844 180.011719 L 243.628906 180.011719 L 243.628906 201.878906 L 15.464844 201.878906 Z M 15.464844 180.011719 " fill-opacity="1" fill-rule="nonzero"/><g clip-path="url(#11d290ea52)"><path fill="#d8cdbf" d="M 7.855469 201.789062 L 251.226562 201.789062 L 251.226562 230.339844 L 7.855469 230.339844 Z M 7.855469 201.789062 " fill-opacity="1" fill-rule="nonzero"/></g><g clip-path="url(#fa981b2a2a)"><path fill="#c16f1e" d="M 258.496094 209.398438 C 259.097656 209.046875 259.449219 208.601562 259.449219 208.132812 C 259.449219 207.558594 258.925781 207.039062 258.078125 206.648438 L 258.078125 199.871094 C 258.925781 199.492188 259.449219 198.972656 259.449219 198.386719 C 259.449219 197.851562 259.003906 197.371094 258.273438 197.003906 C 259.460938 195.976562 260.203125 194.464844 260.203125 192.769531 C 260.203125 191.363281 259.683594 190.074219 258.835938 189.09375 C 259.226562 188.78125 259.449219 188.445312 259.449219 188.066406 C 259.449219 187.492188 258.925781 186.972656 258.078125 186.578125 L 258.078125 175.191406 C 259.199219 174.214844 259.902344 172.78125 259.902344 171.175781 C 259.902344 168.230469 254.574219 158.863281 254.574219 158.863281 C 254.574219 158.863281 253.742188 160.335938 252.738281 162.289062 L 252.425781 161.625 L 248.097656 152.375 L 248.097656 152.175781 L 248.007812 152.175781 L 177.886719 1.929688 C 177.261719 0.597656 175.28125 1.042969 175.28125 2.503906 C 175.28125 2.699219 175.320312 2.90625 175.410156 3.074219 L 176.503906 5.40625 L 176.503906 33.789062 L 81.339844 33.789062 L 81.339844 4.820312 L 82.433594 2.476562 C 82.511719 2.292969 82.550781 2.097656 82.550781 1.902344 L 82.550781 1.890625 C 82.550781 0.429688 80.570312 -0.0117188 79.945312 1.316406 L 9.796875 151.539062 L 9.707031 151.539062 L 9.707031 151.722656 L 6.070312 159.527344 C 5.835938 159.097656 5.691406 158.851562 5.691406 158.851562 C 5.691406 158.851562 0.375 168.230469 0.375 171.164062 C 0.375 171.347656 0.390625 171.515625 0.402344 171.683594 C 0.519531 172.882812 1.027344 173.964844 1.796875 174.785156 C 1.925781 174.929688 2.058594 175.058594 2.199219 175.175781 L 2.199219 186.566406 C 1.351562 186.945312 0.832031 187.464844 0.832031 188.050781 C 0.832031 188.429688 1.054688 188.769531 1.445312 189.082031 C 0.585938 190.074219 0.0625 191.347656 0.0625 192.769531 C 0.0625 194.464844 0.820312 195.976562 1.992188 197.003906 C 2.019531 196.992188 2.042969 196.980469 2.070312 196.980469 C 2.042969 196.992188 2.03125 197.003906 2.003906 197.003906 C 2.070312 197.058594 2.136719 197.121094 2.199219 197.175781 L 2.199219 196.925781 L 2.199219 197.1875 C 2.136719 197.136719 2.058594 197.070312 1.992188 197.019531 C 1.261719 197.394531 0.832031 197.878906 0.832031 198.398438 C 0.832031 198.984375 1.351562 199.507812 2.199219 199.882812 L 2.199219 206.660156 C 1.351562 207.039062 0.832031 207.558594 0.832031 208.132812 C 0.832031 208.617188 1.183594 209.058594 1.78125 209.410156 C 1.09375 210.269531 0.675781 211.363281 0.675781 212.550781 C 0.675781 213.738281 1.09375 214.832031 1.78125 215.691406 C 1.183594 216.042969 0.832031 216.488281 0.832031 216.957031 C 0.832031 217.542969 1.351562 218.0625 2.199219 218.441406 L 2.199219 230.351562 L 9.199219 230.351562 L 9.199219 218.441406 C 10.046875 218.0625 10.566406 217.542969 10.566406 216.957031 C 10.566406 216.488281 10.203125 216.042969 9.601562 215.691406 C 10.304688 214.832031 10.710938 213.738281 10.710938 212.550781 C 10.710938 211.363281 10.304688 210.269531 9.601562 209.410156 C 10.203125 209.058594 10.566406 208.617188 10.566406 208.132812 C 10.566406 207.558594 10.046875 207.039062 9.199219 206.660156 L 9.199219 202.0625 L 251.09375 202.0625 L 251.09375 206.660156 C 250.246094 207.039062 249.726562 207.558594 249.726562 208.144531 C 249.726562 208.628906 250.078125 209.058594 250.679688 209.410156 C 249.988281 210.269531 249.570312 211.363281 249.570312 212.550781 C 249.570312 213.738281 249.988281 214.832031 250.679688 215.691406 C 250.078125 216.042969 249.726562 216.488281 249.726562 216.957031 C 249.726562 217.527344 250.246094 218.050781 251.09375 218.441406 L 251.09375 230.339844 L 258.09375 230.339844 L 258.09375 218.441406 C 258.941406 218.0625 259.460938 217.542969 259.460938 216.957031 C 259.460938 216.472656 259.109375 216.042969 258.507812 215.691406 C 259.199219 214.832031 259.617188 213.738281 259.617188 212.550781 C 259.605469 211.351562 259.199219 210.257812 258.496094 209.398438 Z M 20.132812 179.828125 L 20.132812 135.902344 L 25.472656 124.449219 L 25.472656 157.925781 L 23.0625 157.925781 L 23.0625 159.136719 L 236.019531 159.136719 L 236.019531 157.925781 L 232.355469 157.925781 L 232.355469 125.074219 L 237.699219 136.527344 L 237.699219 179.828125 Z M 190.382812 50.847656 L 190.382812 49.636719 L 186.527344 49.636719 L 186.527344 26.921875 L 192.3125 39.300781 L 192.3125 64.84375 L 65.519531 64.84375 L 65.519531 38.691406 L 71.304688 26.308594 L 71.304688 49.621094 L 68.710938 49.621094 L 68.710938 50.835938 L 190.382812 50.835938 Z M 63.851562 64.84375 L 61.101562 64.84375 L 61.101562 66.054688 L 197.992188 66.054688 L 197.992188 64.84375 L 193.980469 64.84375 L 193.980469 42.886719 L 199.609375 54.9375 L 199.609375 80.960938 L 58.222656 80.960938 L 58.222656 54.328125 L 63.851562 42.273438 Z M 56.082031 80.960938 L 53.492188 80.960938 L 53.492188 82.175781 L 205.601562 82.175781 L 205.601562 80.960938 L 201.746094 80.960938 L 201.746094 59.5 L 207.78125 72.425781 L 207.78125 99.207031 L 50.050781 99.207031 L 50.050781 71.816406 L 56.082031 58.886719 Z M 48.304688 99.21875 L 45.878906 99.21875 L 45.878906 100.429688 L 213.199219 100.429688 L 213.199219 99.21875 L 209.511719 99.21875 L 209.511719 76.167969 L 214.621094 87.101562 L 214.621094 118.375 L 43.195312 118.375 L 43.195312 86.488281 L 48.304688 75.554688 Z M 41.175781 118.386719 L 38.269531 118.386719 L 38.269531 119.601562 L 220.796875 119.601562 L 220.796875 118.386719 L 216.628906 118.386719 L 216.628906 91.425781 L 222.765625 104.574219 L 222.765625 137.242188 L 35.039062 137.242188 L 35.039062 103.960938 L 41.175781 90.8125 Z M 33.019531 137.242188 L 30.671875 137.242188 L 30.671875 138.457031 L 228.421875 138.457031 L 228.421875 137.242188 L 224.8125 137.242188 L 224.8125 108.902344 L 230.011719 120.03125 L 230.011719 157.925781 L 27.820312 157.925781 L 27.820312 119.417969 L 33.019531 108.289062 Z M 79.554688 33.816406 L 76.308594 33.816406 L 76.308594 35.027344 L 182.785156 35.027344 L 182.785156 33.816406 L 178.277344 33.816406 L 178.277344 9.238281 L 184.402344 22.363281 L 184.402344 49.621094 L 73.429688 49.621094 L 73.429688 21.75 L 79.554688 8.625 Z M 9.707031 158.210938 L 9.707031 166.851562 C 9.09375 165.417969 8.351562 163.894531 7.6875 162.550781 Z M 9.707031 186.839844 C 9.550781 186.734375 9.378906 186.644531 9.199219 186.566406 L 9.199219 175.175781 C 9.394531 175.007812 9.550781 174.8125 9.707031 174.628906 Z M 9.707031 196.667969 L 9.707031 197.199219 C 9.601562 197.136719 9.511719 197.070312 9.394531 197.003906 C 9.511719 196.902344 9.601562 196.769531 9.707031 196.667969 Z M 9.199219 200.824219 L 9.199219 199.871094 C 9.394531 199.78125 9.5625 199.6875 9.707031 199.597656 L 9.707031 200.835938 L 9.199219 200.835938 Z M 12.691406 151.839844 L 17.445312 141.648438 L 17.445312 179.828125 L 15.464844 179.828125 L 15.464844 181.042969 L 243.628906 181.042969 L 243.628906 179.828125 L 240.382812 179.828125 L 240.382812 142.261719 L 245.140625 152.453125 L 245.140625 200.808594 L 12.691406 200.808594 Z M 248.109375 200.824219 L 248.109375 158.824219 L 250.847656 164.699219 L 251.1875 165.429688 C 250.144531 167.699219 249.257812 169.964844 249.257812 171.164062 C 249.257812 172.765625 249.960938 174.199219 251.082031 175.175781 L 251.082031 186.566406 C 250.234375 186.945312 249.714844 187.464844 249.714844 188.050781 C 249.714844 188.429688 249.933594 188.78125 250.328125 189.082031 C 249.464844 190.074219 248.957031 191.347656 248.957031 192.757812 C 248.957031 194.449219 249.699219 195.976562 250.886719 196.992188 C 250.15625 197.371094 249.714844 197.851562 249.714844 198.375 C 249.714844 198.945312 250.234375 199.46875 251.082031 199.859375 L 251.082031 200.808594 L 248.109375 200.808594 Z M 248.109375 200.824219 " fill-opacity="1" fill-rule="nonzero"/></g></svg>