<svg xmlns="http://www.w3.org/2000/svg" xmlns:xlink="http://www.w3.org/1999/xlink" width="141" zoomAndPan="magnify" viewBox="0 0 105.75 175.5" height="234" preserveAspectRatio="xMidYMid meet" version="1.0"><defs><clipPath id="113adf9c69"><path d="M 0.0273438 0 L 104.726562 0 L 104.726562 175 L 0.0273438 175 Z M 0.0273438 0 " clip-rule="nonzero"/></clipPath></defs><g clip-path="url(#113adf9c69)"><path fill="#d8cdbf" d="M 58.363281 0.00390625 L 2.429688 17.484375 C 1.035156 18.179688 0.0273438 19.585938 0.0273438 20.980469 L 0.0273438 157.320312 C 0.0273438 159.066406 1.117188 160.460938 2.867188 160.816406 L 58.800781 174.800781 L 59.457031 174.800781 C 60.152344 174.800781 60.835938 174.5 61.53125 174.144531 C 62.226562 173.445312 62.953125 172.355469 62.953125 171.304688 L 62.953125 3.5 C 62.953125 2.449219 62.226562 1.355469 61.53125 0.660156 C 60.480469 -0.0351562 59.414062 0.00390625 58.363281 0.00390625 Z M 69.945312 13.988281 L 69.945312 20.980469 L 97.910156 20.980469 L 97.910156 153.824219 L 69.945312 153.824219 L 69.945312 160.816406 L 101.40625 160.816406 C 103.332031 160.816406 104.902344 159.246094 104.902344 157.320312 L 104.902344 17.484375 C 104.902344 15.558594 103.332031 13.988281 101.40625 13.988281 Z M 48.96875 83.90625 C 51.070312 83.90625 52.464844 86.351562 52.464844 89.148438 C 52.464844 91.949219 51.070312 94.394531 48.96875 94.394531 C 46.863281 94.394531 45.472656 91.949219 45.472656 89.148438 C 45.472656 86.351562 46.863281 83.90625 48.96875 83.90625 Z M 48.96875 83.90625 " fill-opacity="1" fill-rule="nonzero"/></g></svg>